<?xml version="1.0" standalone="no"?>
<!DOCTYPE svg PUBLIC "-//W3C//DTD SVG 1.1//EN" "http://www.w3.org/Graphics/SVG/1.1/DTD/svg11.dtd" >
<!--
2013-9-30: Created.
-->
<svg>
<metadata>
Created by iconfont
</metadata>
<defs>

<font id="iconfont" horiz-adv-x="1024" >
  <font-face
    font-family="iconfont"
    font-weight="500"
    font-stretch="normal"
    units-per-em="1024"
    ascent="896"
    descent="-128"
  />
    <missing-glyph />
    
    <glyph glyph-name="kehuxinxiguanli" unicode="&#58930;" d="M474.1 765.2c45.6 0 88.6-18.2 120.9-51.2 32.7-33.4 50.7-77.8 50.7-125.2s-18-91.8-50.7-125.2c-32.4-33-75.3-51.2-120.9-51.2s-88.6 18.2-120.9 51.2c-32.7 33.4-50.7 77.8-50.7 125.2s18 91.8 50.7 125.2c32.3 33.1 75.2 51.2 120.9 51.2m0 64c-130.2 0-235.7-107.6-235.7-240.4s105.5-240.4 235.7-240.4S709.7 456 709.7 588.8 604.2 829.2 474.1 829.2zM458.4-28.8h-278c-31 0-60.1 12.3-82 34.6C76 28.6 64 58.9 64.6 91.1c0.9 45.3 15 93.1 41.8 142.1 20.7 37.8 49.2 76.4 84.5 114.9 59.5 64.8 117.9 106.8 120.3 108.6l37.2-52c-3-2.2-216.9-157.7-219.9-314.8-0.3-14.9 5.2-28.8 15.5-39.3 9.7-9.9 22.6-15.4 36.3-15.4h278v-64zM348.5 404.7l-18.6 26 18.6-26zM500.2 349.7H448c-1.6 0-2.9-1-3.4-2.6L398 194.6c-1.6-5.3-0.2-11 3.6-14.9l67.4-68.8c1-1 2.2-1.5 3.4-1.5h3.2c1.2 0 2.4 0.5 3.4 1.5l67.4 68.8c3.8 3.9 5.2 9.6 3.6 14.9l-46.6 152.6c-0.3 1.5-1.7 2.5-3.2 2.5z m-26.1-31.8s0 0.1 0 0h5.9c0.4 0 0.7-0.7 0.8-1.7L491.2 214c0.4-3.5 0-7.4-0.8-10l-15.2-46.1c-0.2-0.7-0.5-1-0.8-1h-0.6c-0.3 0-0.5 0.3-0.8 1L457.8 204c-0.9 2.6-1.2 6.4-0.8 10l10.5 102.3c0.1 1 0.4 1.7 0.8 1.7l5.8-0.1c-0.1 0.1-0.1 0 0 0zM830.1 286H594.5c-17.7 0-32 14.3-32 32s14.3 32 32 32h235.6c17.7 0 32-14.3 32-32s-14.3-32-32-32zM884 129.9H594.5c-17.7 0-32 14.3-32 32s14.3 32 32 32H884c17.7 0 32-14.3 32-32s-14.3-32-32-32zM919.1-26.3H594.5c-17.7 0-32 14.3-32 32s14.3 32 32 32h324.6c17.7 0 32-14.3 32-32s-14.3-32-32-32z"  horiz-adv-x="1024" />

    
    <glyph glyph-name="shouye" unicode="&#58889;" d="M817.326592-128H608.334458c-30.197304 0-54.866932 27.668367-54.866932 61.534129V168.955151h-82.995106v-235.421022c0-33.865762-24.669628-61.534129-54.866933-61.534129H203.74456c-30.197304 0-54.866932 27.668367-54.866932 61.534129V319.831718H54.927127c-23.170259 0-43.341778 15.773368-51.408386 40.073152-8.066609 24.179834-1.959176 50.808639 15.333553 67.74152l446.902109 447.311937 0.229903 0.25989c29.507594 28.567989 73.309179 27.538422 101.89716-2.199075l438.135795-446.792155 0.229903-0.259891c16.48307-17.452662 21.790838-43.951521 13.374377-67.491625-8.306508-23.530107-28.358077-38.783694-50.94858-38.783694h-96.479437v-386.157648c0-33.865762-24.669628-61.534129-54.866932-61.534129z m-196.997177 74.978477h185.012216V394.68025h132.214413L522.580512 817.812352l-0.109954 0.129946c-3.578495 3.748424-8.996218 3.878369-12.564717 0.519781L86.503851 394.810195h129.215674v-447.831718h187.891005V182.399499c0 33.875758 24.669628 61.544125 54.866933 61.544125H565.462483c30.197304 0 54.866932-27.668367 54.866932-61.544125v-235.421022z m0 0"  horiz-adv-x="1024" />

    
    <glyph glyph-name="shezhi" unicode="&#58894;" d="M512.01 579.12c-107.7-0.53-194.58-88.27-194.04-195.98s88.27-194.58 195.98-194.04c107.7 0.53 194.58 88.27 194.04 195.97-0.54 107.71-88.29 194.58-195.98 194.05z m1.59-322.77c-70.56-0.35-128.05 56.57-128.4 127.13-0.35 70.56 56.57 128.05 127.13 128.4 70.56 0.35 128.04-56.57 128.39-127.13 0.36-70.57-56.55-128.05-127.12-128.4z m408.31 414.83L558 881.29a89.985 89.985 0 0 1-90 0L104.09 671.1800000000001a89.997 89.997 0 0 1-45-77.94v-420.21c0-32.15 17.15-61.87 45-77.94L468-115.01999999999998a89.985 89.985 0 0 1 90 0l363.91 210.11a89.997 89.997 0 0 1 45 77.94V593.24c0 32.15-17.15 61.86-45 77.94zM896 213.87c0-32.15-17.15-61.87-45-77.94L557-33.809999999999945a89.985 89.985 0 0 0-90 0L173 135.92999999999995a89.997 89.997 0 0 0-45 77.94V553.35c0 32.15 17.15 61.87 45 77.94L467 801.03a89.985 89.985 0 0 0 90 0l294-169.74a89.997 89.997 0 0 0 45-77.94v-339.48z"  horiz-adv-x="1024" />

    
    <glyph glyph-name="guanli" unicode="&#58895;" d="M512 585.25c-111.03 0-201.36-90.34-201.36-201.37S400.97 182.51999999999998 512 182.51999999999998c111.04 0 201.37 90.33 201.37 201.36-0.01 111.04-90.34 201.37-201.37 201.37z m0-332.37c-72.24 0-131.01 58.77-131.01 131.01 0 72.24 58.77 131.01 131.01 131.01 72.24 0 131.01-58.77 131.01-131.01 0-72.24-58.77-131.01-131.01-131.01z m484.58 50.14l-65.21 37.65a427.07 427.07 0 0 1 2.2 43.22c0 14.41-0.74 28.89-2.2 43.22l65.21 37.65c24.73 14.28 33.24 46.02 18.96 70.75L895.08 744.16c-14.28 24.73-46.02 33.23-70.75 18.96l-65.21-37.65a420.13 420.13 0 0 1-74.86 43.3V843.99c0 28.56-23.23 51.79-51.8 51.79H391.54c-28.56 0-51.79-23.24-51.79-51.79v-75.23a420.834 420.834 0 0 1-74.86-43.3l-65.22 37.65c-24.73 14.28-56.47 5.78-70.75-18.96L8.46 535.51c-14.28-24.73-5.77-56.47 18.96-70.75l65.21-37.65c-1.46-14.33-2.2-28.81-2.2-43.22 0-14.4 0.74-28.89 2.2-43.22l-65.21-37.65C2.69 288.74-5.82 257 8.46 232.26l120.46-208.64c14.28-24.74 46.02-33.24 70.75-18.96l65.22 37.65a421.042 421.042 0 0 1 74.86-43.29v-75.23c0-28.56 23.23-51.79 51.79-51.79h240.92c28.56 0 51.8 23.24 51.8 51.79v75.23a421.395 421.395 0 0 1 74.86 43.29l65.21-37.65c24.74-14.28 56.48-5.78 70.75 18.96l120.46 208.64c14.28 24.74 5.78 56.47-18.96 70.76zM843.43 74.87l-59.74 34.49c-18.26 10.53-40.81 9.05-57.46-3.79-24.67-19.02-51.71-34.67-80.38-46.49-19.41-8.01-31.96-26.79-31.96-47.84v-68.89H410.1v68.89c0 21.05-12.54 39.83-31.95 47.84-28.67 11.83-55.71 27.47-80.38 46.49-16.65 12.84-39.21 14.33-57.46 3.79l-59.74-34.49-101.9 176.5 59.72 34.48c18.21 10.51 28.2 30.75 25.46 51.56a354.898 354.898 0 0 0-3.05 46.48c0 15.53 1.03 31.17 3.05 46.48 2.75 20.81-7.24 41.04-25.46 51.56l-59.72 34.48 101.9 176.5 59.74-34.49c18.25-10.54 40.8-9.05 57.46 3.79 24.67 19.02 51.71 34.66 80.38 46.49 19.41 8.01 31.96 26.79 31.96 47.84V825.42h203.8v-68.88c0-21.05 12.54-39.83 31.96-47.84a350.752 350.752 0 0 0 80.38-46.49c16.65-12.83 39.2-14.32 57.45-3.79l59.74 34.49 101.9-176.5-59.72-34.48c-18.22-10.52-28.2-30.76-25.46-51.57 2.03-15.31 3.05-30.94 3.05-46.48 0-15.53-1.02-31.16-3.05-46.48-2.75-20.81 7.24-41.05 25.46-51.56l59.72-34.48-101.91-176.49z"  horiz-adv-x="1024" />

    
    <glyph glyph-name="quanxian" unicode="&#58896;" d="M513.169577 896L115.983092 769.835587c-14.864629-4.708299-24.960981-18.503314-24.980974-34.09768l2.04926-496.120737 0.46983-5.667952a347.046602 347.046602 0 0 1 98.244502-166.21994c62.43744-61.587747 215.662075-142.098656 281.048449-176.456242 10.276287-5.408046 17.943517-9.416598 22.331931-11.84572l7.457305-4.048537a17.468688 17.468688 0 0 1 16.324102-0.209924l10.866074 5.537999c38.366137 18.753224 232.545975 115.808155 304.749885 186.982438 47.872702 44.953757 81.970382 102.602927 98.284487 166.21994l2.299169 501.618751a35.791068 35.791068 0 0 1-24.980973 34.307604L513.169577 896z m355.171667-652.834113a295.624183 295.624183 0 0 0-79.791169-130.632798c-57.239318-56.469596-212.38326-137.110458-268.772885-165.540186a17.403712 17.403712 0 0 0-16.064196 0C446.21377-22.83799799999997 293.628904 57.333034 237.969015 112.27318300000002a294.415619 294.415619 0 0 0-79.831155 130.632798L156.128586 703.859426a15.91425 15.91425 0 0 0 11.036013 15.174517L502.383475 825.5854429999999a35.401209 35.401209 0 0 0 21.312299 0l335.218876-106.5515a15.902254 15.902254 0 0 0 11.12598-15.174517l-1.919307-460.703535h0.219921zM519.227389 656.586507c38.805978 0.079971 76.062516-15.254488 103.562579-42.614602a142.950348 142.950348 0 0 0 42.624599-102.273046 142.968342 142.968342 0 0 0-43.224382-102.01314 146.032234 146.032234 0 0 0-67.215713-37.126585l-0.419848-60.478148h60.6081c9.646514 0.079971 18.933159-3.688667 25.800678-10.476214a36.234907 36.234907 0 0 0 10.776106-25.670725 35.860043 35.860043 0 0 0-10.826088-25.57076A36.746722 36.746722 0 0 0 614.962797 239.787108h-60.608101l-0.259906-100.93353a35.877037 35.877037 0 0 0-10.826088-25.57076 36.677747 36.677747 0 0 0-25.950624-10.566182c-9.646514-0.079971-18.933159 3.688667-25.800677 10.476214a36.251901 36.251901 0 0 0-10.776106 25.670725l0.899675 233.905483a145.674364 145.674364 0 0 0-66.955807 37.336509 143.0843 143.0843 0 0 0 0.46983 204.586078 146.827947 146.827947 0 0 0 103.912453 42.114782l0.159943-0.21992z m88.138153-143.158273a83.41486 83.41486 0 0 1-25.100931 60.13827c-33.84777 33.217997-88.038189 33.337954-122.025908 0.24991a83.175946 83.175946 0 0 1-25.570761-59.878364 84.142597 84.142597 0 0 1 25.100931-60.218242 85.863975 85.863975 0 0 1 60.868006-24.891006c46.973027 0.459834 85.209212 37.906303 86.648692 84.859338l0.079971-0.259906z m0 0"  horiz-adv-x="1024" />

    
    <glyph glyph-name="zuzhijiagou" unicode="&#58897;" d="M958.755832 190.60710600000004H895.03641v148.475351c0 16.897195-6.708886 33.104504-18.666901 45.052521a63.722421 63.722421 0 0 1-45.052521 18.666901H545.204488V550.627337h77.107199c16.897195 0 33.104504 6.708886 45.05252 18.666901a63.72842 63.72842 0 0 1 18.666901 45.062519V832.280578c0 16.897195-6.708886 33.104504-18.666901 45.062519A63.777412 63.777412 0 0 1 622.301688 896H404.377867c-16.897195 0-33.114502-6.718885-45.062519-18.666901a63.718422 63.718422 0 0 1-18.656903-45.062519v-217.923821c0-16.897195 6.708886-33.104504 18.656903-45.062519a63.745417 63.745417 0 0 1 45.062519-18.666901h77.097201v-147.835457H194.102776c-16.897195 0-33.104504-6.708886-45.062519-18.666901a63.722421 63.722421 0 0 1-18.666901-45.052521v-148.47535H66.653934c-16.897195 0-33.104504-6.708886-45.05252-18.666901S2.934513 143.78487900000005 2.934513 126.88768500000003v-191.168263c0-16.897195 6.708886-33.104504 18.666901-45.052521A63.722421 63.722421 0 0 1 66.653934-128h191.168263c16.897195 0 33.104504 6.708886 45.062519 18.666901a63.722421 63.722421 0 0 1 18.666901 45.052521v191.168263c0 16.897195-6.718885 33.104504-18.666901 45.062519a63.72842 63.72842 0 0 1-45.062519 18.666901h-63.719421v148.47535h286.742396v-148.47535h-63.719421c-16.897195 0-33.104504-6.708886-45.062519-18.666901a63.72842 63.72842 0 0 1-18.666901-45.062519v-191.168263c0-16.897195 6.708886-33.104504 18.666901-45.052521a63.72842 63.72842 0 0 1 45.062519-18.666901H608.284015c16.897195 0 33.104504 6.708886 45.062519 18.666901a63.722421 63.722421 0 0 1 18.666901 45.052521v191.168263c0 16.897195-6.708886 33.104504-18.666901 45.062519s-28.155326 18.666901-45.062519 18.666901h-63.719421v148.47535h286.742396v-148.47535h-63.719422c-16.897195 0-33.104504-6.708886-45.062518-18.666901a63.72842 63.72842 0 0 1-18.666901-45.062519v-191.168263c0-16.897195 6.718885-33.104504 18.666901-45.052521a63.72842 63.72842 0 0 1 45.062518-18.666901h191.168264c16.897195 0 33.104504 6.708886 45.05252 18.666901a63.722421 63.722421 0 0 1 18.666901 45.052521v191.168263a63.712423 63.712423 0 0 1-63.719421 63.719421zM404.377867 832.280578h217.923821v-217.923821H404.377867V832.280578zM257.822197-64.91047400000002H66.653934V126.257789h191.168263v-191.168263z m350.461818 0H417.125751V126.257789H608.284015v-191.168263z m351.101712-31.86471V-64.91047400000002H767.587568V126.257789h191.168264v-191.168263l0.629895-31.86471z m0 0"  horiz-adv-x="1024" />

    
    <glyph glyph-name="xiangmu" unicode="&#58898;" d="M80.45 616.5899999999999L512.8 396.62l432.35 219.97L512.8 828.97 80.45 616.5899999999999z m60.68-341.33l-91.02 45.51C19.77 335.94000000000005 4.6 358.69000000000005 4.6 389.03c0 30.34 15.17 53.1 45.51 68.26l91.02 45.51-91.02 45.51C12.18 563.49-2.99 609 12.18 646.9300000000001c7.58 15.17 22.76 30.34 30.34 30.34L474.88 889.65c22.76 7.58 45.51 7.58 68.27 0L975.5 677.27c37.92-15.17 53.09-60.68 30.34-98.6-7.58-15.17-22.75-30.34-30.34-30.34l-91.02-45.51 83.44-37.93c37.92-15.17 53.09-37.92 53.09-75.85 0-30.34-15.17-60.68-53.09-75.85l-83.44-37.93 83.44-37.93c37.92-15.17 53.09-37.92 53.09-75.85 0-30.34-15.17-60.68-53.09-75.85l-417.18-204.8c-7.59-7.58-22.76-7.58-37.93-7.58s-22.76 0-37.93 7.58L42.52 93.21000000000004C12.18 108.38 4.6 131.14 4.6 161.48000000000002c0 30.34 15.17 53.1 45.51 68.27l91.02 45.51z m83.44-45.51L80.45 161.48000000000002 512.8-58.49000000000001l432.35 212.38-144.12 68.27-250.3-121.36c-7.59-7.58-22.76-7.58-37.93-7.58s-22.76 0-37.93 7.58l-250.3 128.95zM801.03 457.3l-250.3-121.36c-22.76-7.59-45.51-7.59-68.27 0L224.57 457.3 80.45 389.03 512.8 169.07000000000005l432.35 219.97-144.12 68.26z m0 0"  horiz-adv-x="1024" />

    
    <glyph glyph-name="yewu" unicode="&#58900;" d="M406.25 586.9100000000001c0 21.26 17.2 38.5 38.41 38.5h302.94c21.22 0 38.41-17.24 38.41-38.5 0-21.27-17.19-38.51-38.41-38.51H444.66c-21.21 0-38.41 17.24-38.41 38.51z m38.41-162.74h302.94c21.22 0 38.41 17.24 38.41 38.5 0 21.27-17.19 38.5-38.41 38.5H444.66c-21.21 0-38.41-17.23-38.41-38.5 0-21.26 17.2-38.5 38.41-38.5zM1024.27 175.5v-220.85c0-45.58-37.03-82.65-82.46-82.65H82.46c-45.48 0-82.46 37.12-82.46 82.65V175.5c0 28.24 14.24 53.19 35.8 68.07v440c0.09 70.03 56.7 126.77 126.56 126.85h48.96C228.77 861.49 276.6 895.85 330.45 896h531.57c69.87-0.11 126.47-56.87 126.55-126.9v-525.48c21.51-14.99 35.7-39.89 35.7-68.12zM280.62 769.1v-510.84h89.17c19.7-0.01 36.21-14.96 38.21-34.6 2.05-20.18 42.67-48.2 104.12-48.2 61.46 0 102.07 28.08 104.12 48.2 2 19.65 18.5 34.6 38.21 34.6h257.16V769.1c-0.03 27.52-22.27 49.84-49.73 49.89H330.35c-27.45-0.08-49.68-22.38-49.73-49.89z m-168.04-85.53v-425.31h91.16V733.37h-41.48c-27.42-0.06-49.63-22.32-49.68-49.8zM947.45 175.5a5.63 5.63 0 0 1-5.63 5.7H682.3c-25.14-48.97-91.47-82.8-170.14-82.8-78.67 0-144.99 33.83-170.24 82.8H82.46c-1.5 0-2.94-0.6-4-1.67a5.704 5.704 0 0 1-1.63-4.03v-220.85c0-3.18 2.46-5.64 5.63-5.64h859.35c1.49 0 2.93 0.59 3.99 1.65a5.672 5.672 0 0 1 1.65 3.99V175.5z m0 0"  horiz-adv-x="1024" />

    
    <glyph glyph-name="caidan" unicode="&#58901;" d="M358.226502 896H111.088915C49.839513 896 0 846.170487 0 784.911085v-247.117587C0 476.544096 49.829513 426.704583 111.088915 426.704583h247.137587c61.249402 0 111.088915 49.829513 111.088915 111.088915V784.9310849999999C469.325417 846.170487 419.495903 896 358.226502 896z m37.029638-358.196502c0-20.409801-16.619838-37.029638-37.029638-37.029638H111.088915c-20.409801 0-37.029638 16.619838-37.029638 37.029638V784.9310849999999c0 20.409801 16.619838 37.029638 37.029638 37.029638h247.137587c20.409801 0 37.029638-16.619838 37.029638-37.029638V537.803498z m-37.029638-196.498081H111.088915C49.839513 341.30541700000003 0 291.475904 0 230.216502v-247.127587C0-78.150487 49.829513-127.99000000000001 111.088915-127.99000000000001h247.137587c61.249402 0 111.088915 49.829513 111.088915 111.088915V230.216502c0.01 61.239402-49.819513 111.088915-111.088915 111.088915z m37.029638-358.206502c0-20.419801-16.619838-37.029638-37.029638-37.029638H111.088915c-20.409801 0-37.029638 16.609838-37.029638 37.029638V230.216502c0 20.409801 16.619838 37.019638 37.029638 37.019638h247.137587c20.409801 0 37.029638-16.609838 37.029638-37.019638v-247.117587zM912.901085 896H665.763498c-61.249402 0-111.088915-49.829513-111.088915-111.088915v-247.117587c0-61.249402 49.829513-111.088915 111.088915-111.088915h247.137587c61.249402 0 111.088915 49.829513 111.088915 111.088915V784.9310849999999C1023.99 846.170487 974.160487 896 912.901085 896z m37.029638-358.196502c0-20.409801-16.619838-37.029638-37.029638-37.029638H665.763498c-20.409801 0-37.019638 16.619838-37.019638 37.029638V784.9310849999999c0 20.409801 16.609838 37.029638 37.019638 37.029638h247.137587c20.409801 0 37.029638-16.619838 37.029638-37.029638V537.803498z m-37.029638-196.498081H665.763498c-61.249402 0-111.088915-49.829513-111.088915-111.088915v-247.127587c0-61.249402 49.829513-111.088915 111.088915-111.088915h247.137587c61.249402 0 111.088915 49.829513 111.088915 111.088915V230.216502c0 61.239402-49.829513 111.088915-111.088915 111.088915z m37.029638-358.206502c0-20.419801-16.619838-37.029638-37.029638-37.029638H665.763498c-20.409801 0-37.019638 16.609838-37.019638 37.029638V230.216502c0 20.409801 16.609838 37.019638 37.019638 37.019638h247.137587c20.409801 0 37.029638-16.609838 37.029638-37.019638v-247.117587z m0 0"  horiz-adv-x="1024" />

    
    <glyph glyph-name="ziliao" unicode="&#58902;" d="M960 896H64C28.68 896 0 863.22 0 822.86v-146.28c0-40.36 28.68-73.14 64-73.14h896c35.31 0 64 32.78 64 73.14V822.86C1024 863.22 995.31 896 960 896z m0-219.43H64V822.86h896v-146.29z m0-146.28H64c-35.32 0-64-32.78-64-73.14v-146.28c0-40.36 28.68-73.14 64-73.14h896c35.31 0 64 32.78 64 73.14V457.14c0 40.36-28.69 73.15-64 73.15z m0-219.43H64V457.14h896v-146.28z m0-146.29H64c-35.32 0-64-32.78-64-73.14v-146.28C0-95.22000000000003 28.68-128 64-128h896c35.31 0 64 32.78 64 73.14V91.42999999999995c0 40.36-28.69 73.14-64 73.14z m0-219.43H64V91.42999999999995h896v-146.29zM832 749c0 17.67 14.33 32 32 32s32-14.33 32-32-14.33-32-32-32-32 14.33-32 32z m-114 1c0 17.67 14.33 32 32 32s32-14.33 32-32-14.33-32-32-32-32 14.33-32 32z m-114 0c0 17.67 14.33 32 32 32s32-14.33 32-32-14.33-32-32-32-32 14.33-32 32z m228-367c0 17.67 14.33 32 32 32s32-14.33 32-32-14.33-32-32-32-32 14.33-32 32z m-114 0c0 17.67 14.33 32 32 32s32-14.33 32-32-14.33-32-32-32-32 14.33-32 32z m-114 0c0 17.67 14.33 32 32 32s32-14.33 32-32-14.33-32-32-32-32 14.33-32 32z m-114 0c0 17.67 14.33 32 32 32s32-14.33 32-32-14.33-32-32-32-32 14.33-32 32z m342-368c0 17.67 14.33 32 32 32s32-14.33 32-32-14.33-32-32-32-32 14.33-32 32z m-114 0c0 17.67 14.33 32 32 32s32-14.33 32-32-14.33-32-32-32-32 14.33-32 32z"  horiz-adv-x="1024" />

    
    <glyph glyph-name="shouji" unicode="&#58908;" d="M825.78 894.42H198.22c-38.73 0-70.22-28.66-70.22-63.9V-64.10000000000002c0-35.24 31.49-63.9 70.22-63.9h627.57c38.73 0 70.22 28.66 70.22 63.9V830.52c-0.01 35.24-31.5 63.9-70.23 63.9z m0-926.57c0-17.58-15.8-31.95-35.11-31.95H233.33c-19.31 0-35.11 14.38-35.11 31.95V121.80999999999995h627.57v-153.96z m0 217.86H198.22V798.56c0 17.58 15.8 31.95 35.11 31.95h557.35c19.31 0 35.11-14.38 35.11-31.95v-612.85zM457.81 27.57000000000005c0 30.32 24.58 54.9 54.9 54.9s54.9-24.58 54.9-54.9-24.58-54.9-54.9-54.9-54.9 24.58-54.9 54.9z"  horiz-adv-x="1024" />

    
    <glyph glyph-name="tongxunlu" unicode="&#58914;" d="M1023.99 806.5108740000001V-38.49087399999996c0-49.359518-43.839572-89.509126-97.729046-89.509126H167.418365c-53.899474 0-97.739046 40.149608-97.739045 89.499126V105.80771700000003c0 20.549799 18.199822 37.219637 40.649603 37.219636s40.649603-16.659837 40.649603-37.219636v-144.288591c0-8.309919 7.379928-15.069853 16.449839-15.069853h758.852589c9.079911 0.01 16.41984 6.749934 16.42984 15.069853v844.991748c0 8.309919-7.349928 15.049853-16.42984 15.059853H167.418365c-9.089911-0.01-16.449839-6.749934-16.449839-15.059853v-135.798674c0-20.549799-18.199822-37.209637-40.649603-37.209637s-40.649603 16.659837-40.649603 37.209637V806.5108740000001C69.66932 855.860392 113.518891 896 167.418365 896h758.852589C980.140428 896 1023.99 855.860392 1023.99 806.5108740000001zM40.649603 520.463667h132.338708c22.449781 0 40.649603 16.659837 40.649603 37.219637 0 20.549799-18.199822 37.219637-40.649603 37.219636H40.649603C18.199822 594.90294 0 578.233103 0 557.683304c0-20.549799 18.199822-37.219637 40.649603-37.219637z m0-173.668304h132.338708c22.449781 0 40.649603 16.659837 40.649603 37.219637s-18.199822 37.219637-40.649603 37.219636H40.649603C18.199822 421.234636 0 404.564799 0 384.015s18.199822-37.219637 40.649603-37.219637z m172.978311-132.568705c0 20.559799-18.199822 37.219637-40.649603 37.219636H40.649603C18.199822 251.44629399999997 0 234.78645700000004 0 214.22665800000004 0 193.67685900000004 18.199822 177.007021 40.649603 177.007021h132.338708c22.439781 0 40.639603 16.669837 40.639603 37.219637z m251.617543 175.438287c-21.069794 24.319763-34.409664 56.999443-34.409664 91.759104 0 66.749348 51.329499 117.078857 119.408834 117.078856 68.069335 0 119.388834-50.329509 119.388834-117.078856 0-34.76966-13.33987-67.439341-34.409664-91.769104C736.332809 358.965244 749.992676 270.666107 749.992676 201.00678700000003c0.01-7.009932-2.779973-13.739866-7.729925-18.699817a26.422742 26.422742 0 0 0-18.689817-7.739925c-14.599857 0-26.439742 11.839884-26.439742 26.439742 0 90.679114-24.57976 146.888566-146.888565 146.888566-122.328805 0-146.898565-56.209451-146.898566-146.888566 0-14.599857-11.829884-26.439742-26.439742-26.439742-14.599857 0-26.439742 11.839884-26.439742 26.439742-0.01 69.66932 13.659867 157.968457 114.77888 188.658158z m18.459819 91.759104c0-42.189588 31.70969-80.619213 66.539351-80.619213 34.80966 0 66.51935 38.429625 66.51935 80.619213 0 37.809631-27.359733 64.209373-66.51935 64.209373-39.179617 0.01-66.53935-26.389742-66.539351-64.209373z"  horiz-adv-x="1024" />

    
    <glyph glyph-name="zuqun_jiaose" unicode="&#58915;" d="M647.09 411.42c51.05 40.1 83.98 102.22 83.98 172.02 0 120.66-98.11 218.82-218.72 218.82s-218.71-98.15-218.71-218.82c0-69.8 32.96-131.92 83.98-172.02-134.42-53.75-229.79-185.13-229.79-338.56v-72.94c0-20.16 16.3-36.47 36.45-36.47h656.16c20.15 0 36.45 16.31 36.45 36.47v72.94c0 153.47-95.34 284.81-229.8 338.56z m-134.74 317.9c80.41 0 145.81-65.43 145.81-145.88 0-80.46-65.4-145.89-145.81-145.89s-145.81 65.42-145.81 145.89c-0.01 80.46 65.39 145.88 145.81 145.88z m291.62-692.94H220.72v36.48c0 160.87 130.82 291.76 291.66 291.76 160.8 0 291.59-130.89 291.59-291.76v-36.48z m0 0M268.32 398.74c1 2.21 1 4.55 1.5 6.84 0.35 1.39 0.75 2.7 0.93 4.16 0.28 2.89 0.11 5.63-0.29 8.44-0.14 1.5 0.21 2.92-0.14 4.42-0.21 0.86-0.82 1.46-1.07 2.32-0.56 1.64-1.35 3.1-2.13 4.62-1.5 3.14-3.14 5.98-5.38 8.51-0.32 0.36-0.71 0.61-1.07 0.97-3.31 3.46-7.12 6.09-11.46 7.98-39.45 17.59-64.94 56.78-64.94 99.94 0 50.79 34.39 94.52 83.65 106.38 19.58 4.74 31.61 24.43 26.92 44.03-4.77 19.59-24.53 31.48-44.01 26.93-82.12-19.81-139.47-92.75-139.47-177.34 0-46.16 17.55-89.43 47.38-122.33C63.87 375.41999999999996 2 277.04999999999995 2 165.74v-56.41c0-20.16 16.3-36.48 36.45-36.48 20.15 0 36.46 16.31 36.46 36.48v56.41c0 100.87 67.78 187.41 165.04 211.92 12.1 1.71 23.09 9.08 28.37 21.08z m0 0M865.81 424.6c29.83 32.91 47.38 76.18 47.38 122.34 0 82.38-55.46 154.82-134.88 176.16-19.4 5.2-39.41-6.31-44.68-25.75-5.23-19.48 6.3-39.46 25.75-44.7 47.63-12.78 80.91-56.28 80.91-105.71 0-43.16-25.45-82.27-64.86-99.9-4.41-1.92-8.29-4.59-11.64-8.08-0.29-0.32-0.65-0.54-0.93-0.86-2.28-2.53-3.91-5.45-5.45-8.62-0.74-1.53-1.56-2.95-2.1-4.56-0.25-0.82-0.86-1.46-1.07-2.31-0.36-1.49 0-2.92-0.15-4.42-0.38-2.82-0.56-5.56-0.28-8.44 0.18-1.46 0.58-2.77 0.93-4.16 0.5-2.28 0.5-4.63 1.49-6.84 5.28-12 16.28-19.38 28.37-21.08 97.25-24.51 165.04-111.05 165.04-211.92v-56.42c0-20.16 16.3-36.46 36.45-36.46 20.15 0 36.45 16.31 36.45 36.46v56.42c0.01 111.29-61.86 209.67-156.73 258.85z m0 0"  horiz-adv-x="1024" />

    
    <glyph glyph-name="xiaoxitongzhi" unicode="&#58916;" d="M221.3 798.19h581.4c85.76-0.35 155.2-69.76 155.55-155.49v-326.26c-0.35-85.73-69.79-155.14-155.55-155.49H459.72a92.453 92.453 0 0 1-63.75-26.76L257-4.090000000000032v74.56c-0.82 47.46-37.47 86.57-84.79 90.49-39.52 4.46-106.46 21.67-106.46 95.59V642.7c0.35 85.73 69.79 155.14 155.55 155.49m0 63.72C100.18 861.91 2 763.77 2 642.7v-386.17a159.295 159.295 0 0 1 48.47-114.49c31-30.03 72.86-46.2 116.01-44.82 14.85-0.99 26.48-13.17 26.77-28.04v-159.95c0-7.55 3.04-14.78 8.44-20.06 5.4-5.27 12.7-8.15 20.25-7.98a27.42 27.42 0 0 1 19.76 8.29l198.26 198.18c5.1 5.62 12.19 9.05 19.76 9.56H802.7c121.12 0 219.3 98.14 219.3 219.21V642.7c0 121.07-98.18 219.21-219.3 219.21H221.3z m35.7-456.9c25.79 0 49.03 15.53 58.9 39.34 9.87 23.81 4.41 51.22-13.82 69.45-18.23 18.22-45.65 23.68-69.47 13.81-23.82-9.86-39.35-33.1-39.35-58.87-0.01-35.2 28.53-63.73 63.74-63.73z m255 0c25.78 0 49.03 15.53 58.9 39.34 9.87 23.81 4.42 51.22-13.82 69.45-18.23 18.22-45.65 23.68-69.47 13.81-23.82-9.86-39.35-33.1-39.35-58.87-0.01-35.2 28.53-63.73 63.74-63.73z m255 0c25.79 0 49.03 15.53 58.9 39.34 9.87 23.81 4.41 51.22-13.82 69.45-18.23 18.22-45.65 23.68-69.47 13.81-23.82-9.86-39.35-33.1-39.35-58.87-0.01-35.2 28.53-63.73 63.74-63.73z m0 0"  horiz-adv-x="1024" />

    
    <glyph glyph-name="pinglun" unicode="&#58917;" d="M221.3 798.19h581.4c85.76-0.35 155.2-69.76 155.55-155.49v-326.26c-0.35-85.73-69.79-155.14-155.55-155.49H459.72a92.453 92.453 0 0 1-63.75-26.76L257-4.090000000000032v74.56c-0.82 47.46-37.47 86.57-84.79 90.49-39.52 4.46-106.46 21.67-106.46 95.59V642.7c0.35 85.73 69.79 155.14 155.55 155.49m0 63.72C100.18 861.91 2 763.77 2 642.7v-386.17a159.295 159.295 0 0 1 48.47-114.49c31-30.03 72.86-46.2 116.01-44.82 14.85-0.99 26.48-13.17 26.77-28.04v-159.95c0-7.55 3.04-14.78 8.44-20.06 5.4-5.27 12.7-8.15 20.25-7.98a27.42 27.42 0 0 1 19.76 8.29l198.26 198.18c5.1 5.62 12.19 9.05 19.76 9.56H802.7c121.12 0 219.3 98.14 219.3 219.21V642.7c0 121.07-98.18 219.21-219.3 219.21H221.3zM814 591c0 22-18 40-40 40H255c-22 0-40-18-40-40s18-40 40-40h519c22 0 40 18 40 40z m0-204c0 22-18 40-40 40H255c-22 0-40-18-40-40s18-40 40-40h519c22 0 40 18 40 40z"  horiz-adv-x="1024" />

    
    <glyph glyph-name="erweima" unicode="&#58919;" d="M32.42 894.17h409.17c41.6-4.06 31.57-76.36 31.57-123.33v-223.63c0-48.61 9.28-108.18-23.34-121.99-21.24-8.98-78.25-2.71-105.73-2.71H127.17C77.01 422.51 8.54 410.7 0.84 453.69V862.99C6.45 878.24 16.32 889.28 32.42 894.17m56.3-92.16v-291.39h295.2V806.0699999999999H90.1c-1.61-0.22-1.5-2.14-1.38-4.06M581.64 894.17h409.17c16.69-6.11 28.15-17.38 31.57-36.6v-398.46c-3.74-16.56-12.5-30.69-28.83-35.23-26.68-7.42-71.04-1.36-102.98-1.36H680.5c-31.68 0-78.63-6.58-104.35 1.36-36.31 11.21-26.09 81.16-26.09 130.11V762.7c0 56.5-12.56 123.57 31.58 131.47M637.93 802v-291.39h295.21V806.0699999999999H639.3c-1.59-0.22-1.49-2.14-1.37-4.07m-414.65-85.38c41.11 7.66 73.44-19.76 74.15-56.92 0.92-49.01-49.79-75.93-89.25-55.57-45.16 23.29-42.19 101.82 15.1 112.49m549.21 0c96.84 17.86 94.98-133.52 0-117.91-60.44 9.93-62.4 106.41 0 117.91m-333.64-844.37H33.8c-16.82 5.09-28.18 15.56-32.95 32.53V312.73c4 11.95 13.23 25.87 27.46 29.82 26.88 7.46 70.78 1.36 102.99 1.36h210.07c31.05 0 76.24 6.84 104.35-1.36 38.05-11.08 27.46-79.91 27.46-128.76V-1.7000000000000455c-0.02-52.72 11.49-121.34-34.33-126.05M88.72 251.75v-291.4h295.2V255.80999999999995H90.1c-1.61-0.23-1.5-2.14-1.38-4.06m933.66 55.56v-113.84c-3.2-38.4-0.46-82.67-1.37-123.33H728.55v66.41c-27.47 3.17-60.87 0.46-90.62 1.37-3.21-85.85-0.46-177.55-1.38-265.65H583c-46.04 9.11-32.95 77.3-32.95 131.47V213.78999999999996c0 31.59-6.48 78.95 1.38 104.37 9.37 30.32 49.98 25.75 90.62 25.75h199.09v-180.26h91.99c0.91 59.64-1.83 122.89 1.37 180.26 44.28 2.58 85.28 1.95 87.88-36.6M230.14 167.72000000000003c43.9 4.79 80.18-36.85 63.16-82.68-23.61-63.52-136.47-39.64-115.34 40.66 5.84 22.2 22.73 38.8 52.18 42.02m597.27-295.47h-98.86c0.91 34.8-1.83 73.2 1.38 105.72h97.48v-105.72m194.97 105.72v-69.13c-3.81-19.27-15.23-31.03-32.95-36.59h-70.02c0.91 34.79-1.83 73.19 1.37 105.71l101.6 0.01"  horiz-adv-x="1024" />

    
    <glyph glyph-name="fujian" unicode="&#58921;" d="M462.88006 583.189132L215.450362 334.779435c-85.349896-85.679895-85.319896-224.609726 0.07-310.339621 85.249896-85.599896 223.859727-85.679895 309.129623-0.08L833.999607 334.929435c17.069979 17.139979 44.759945 17.139979 61.839924 0 17.079979-17.149979 17.079979-44.939945 0-62.089924L586.489909-37.72011c-119.429854-119.899854-313.419617-119.779854-432.809472 0.07-119.539854 120.019853-119.589854 314.529616-0.07 434.519469L586.639909 831.598829l0.04 0.04c85.529896 85.759895 223.409727 85.909895 309.089623-0.12 85.529896-85.859895 85.729895-224.349726 0.029999-310.389621L648.309834 272.669511 463.07006 86.699738c-51.369937-51.579937-134.279836-51.799937-185.709774-0.18-51.429937 51.639937-51.629937 134.409836 0.18 186.439773l432.519472 434.219469c17.079979 17.149979 44.769945 17.149979 61.839925 0 17.069979-17.139979 17.069979-44.939945 0-62.079924L339.390211 210.869586c-17.599979-17.659978-17.529979-44.849945-0.18-62.269924 17.189979-17.259979 44.719945-17.179979 62.019924 0.19l432.729472 434.42947c51.519937 51.709937 51.399937 134.609836-0.03 186.229772-24.53997 24.79997-57.919929 38.749953-92.749887 38.759953-34.819957 0.01-68.209917-13.939983-92.749887-38.729953L462.88006 583.189132z m0 0"  horiz-adv-x="1024" />

    
    <glyph glyph-name="wendang" unicode="&#58922;" d="M245.78 379.98H739.6c15.09-3.06 25.96-16.43 25.96-31.95s-10.86-28.89-25.96-31.95H245.78c-15.1 3.06-25.96 16.42-25.96 31.95 0 15.52 10.87 28.89 25.96 31.95zM739.6 214.47H245.78c-15.1-3.06-25.96-16.42-25.96-31.95 0-15.52 10.86-28.89 25.96-31.95H739.6c15.09 3.06 25.96 16.43 25.96 31.95 0 15.53-10.87 28.9-25.96 31.95zM245.78 481.58h285.89c15.36 1.68 26.75 15.12 25.99 30.67 1.47 16.03-10.11 30.27-25.99 31.95H245.78c-15.88-1.68-27.46-15.92-25.99-31.95-0.76-15.55 10.64-29 25.99-30.67zM960.3 670.72l-6.97-669.68c0-70.58-56.76-127.8-126.79-127.8H192.63c-70.01 0-126.78 57.22-126.78 127.8V767.85C65.85 838.43 122.61 895.65 192.63 895.65H743.5l216.8-224.93z m-70.36-94.57H699.76c-35.01 0-63.39 28.61-63.39 63.9V831.75H192.63c-35.01 0-63.39-28.61-63.39-63.9v-766.81c0-35.29 28.38-63.9 63.39-63.9h633.91c35.01 0 63.4 28.61 63.4 63.9V576.15z m0 63.9L699.76 831.75v-160.39c0-8.31 3.27-16.27 9.1-22.14a30.963 30.963 0 0 1 21.97-9.17h159.11z"  horiz-adv-x="1024" />

    
    <glyph glyph-name="tupian" unicode="&#58924;" d="M953.25 830.89H70.61c-38.99 0-70.61-32.44-70.61-72.44v-748.59c0-40.01 31.62-72.44 70.61-72.44h882.64c38.99 0 70.61 32.44 70.61 72.44V758.45c0 40-31.62 72.44-70.61 72.44z m-1.08-761c0-33.63-27.11-60.89-60.55-60.89h-756.9C101.28 9 74.17 36.26 74.17 69.89V699.11c0 33.63 27.11 60.89 60.55 60.89h756.9c33.44 0 60.55-27.26 60.55-60.89v-629.22z m-734.41 70.89c-14.58-0.02-28.09 7.88-35.51 20.77-11.4 19.74-4.41 45.36 14.36 57.82l218.88 145.35c15.39 10.22 35.16 10.35 50.67 0.32l116.51-75.3c7.89-5.1 17.97-4.94 25.7 0.41l210.05 145.28c9.25 6.39 20.62 8.67 31.53 6.31 10.91-2.36 20.42-9.15 26.36-18.83 12.03-19.56 5.43-45.62-13.26-58.55L622.63 198.07c-15.46-10.7-35.63-11.02-51.4-0.81l-117.18 75.73a23.031 23.031 0 0 1-25.33-0.16L240.1 147.58c-6.65-4.44-14.41-6.8-22.34-6.8z m35.26 406.37c0-21.57 11.21-41.5 29.42-52.28 18.2-10.78 40.64-10.78 58.84 0 18.21 10.78 29.42 30.71 29.42 52.28s-11.21 41.5-29.42 52.28c-18.2 10.78-40.63 10.78-58.84 0-18.2-10.78-29.42-30.71-29.42-52.28z"  horiz-adv-x="1024" />

    
    <glyph glyph-name="lianjie" unicode="&#58925;" d="M964.97 836.12c-37.27 37.29-87 57.82-140.02 57.82-53.03 0-102.75-20.54-140.03-57.82l-282.48-282.6c-37.28-37.29-57.8-87.04-57.8-140.08s20.52-102.79 57.8-140.08c28.75-28.76 65.15-47.71 105.28-54.79 2-0.35 3.98-0.52 5.94-0.52 16.16 0 30.49 11.59 33.39 28.07 3.26 18.48-9.07 36.09-27.53 39.35-26.34 4.65-50.22 17.07-69.06 35.92-24.45 24.46-37.91 57.15-37.91 92.04 0 34.9 13.46 67.58 37.91 92.04l17.95 17.96c-0.3-1.27-0.54-2.57-0.7-3.89-2.21-18.63 11.09-35.53 29.71-37.74 29.26-3.48 55.68-16.28 76.4-37.01 24.45-24.46 37.91-57.15 37.91-92.05 0-34.89-13.47-67.58-37.91-92.04L291.34-21.87c-24.45-24.46-57.12-37.93-92.01-37.93-34.88 0-67.56 13.47-92.01 37.93-24.44 24.46-37.91 57.15-37.91 92.05 0 34.89 13.46 67.58 37.91 92.04L299.03 354c13.26 13.26 13.26 34.77 0 48.04s-34.76 13.26-48.02 0L59.31 210.25c-37.27-37.29-57.8-87.04-57.8-140.08 0-53.04 20.53-102.8 57.8-140.08 37.27-37.29 87-57.82 140.03-57.82 53.02 0 102.75 20.54 140.03 57.82l282.48 282.59c37.27 37.29 57.8 87.04 57.8 140.08 0 53.04-20.53 102.79-57.8 140.08-31.15 31.17-72.49 51.21-116.4 56.43-4.09 0.48-8.1 0.22-11.89-0.69l239.39 239.49C757.38 812.54 790.06 826 824.94 826c34.89 0 67.56-13.46 92.01-37.92s37.91-57.15 37.91-92.05-13.46-67.59-37.91-92.05L747.04 434.01c-13.26-13.26-13.26-34.77 0-48.04 13.26-13.26 34.76-13.26 48.02 0l169.91 169.98c37.27 37.29 57.8 87.04 57.8 140.08s-20.53 102.8-57.8 140.09z m0 0"  horiz-adv-x="1024" />

    
    <glyph glyph-name="suoding" unicode="&#58926;" d="M817.25-126.52h-611.3c-62.06 0-112.54 50.48-112.54 112.54V398.06c0 62.06 50.48 112.54 112.54 112.54h611.3c62.06 0 112.54-50.48 112.54-112.54v-412.04c0.01-62.06-50.48-112.54-112.54-112.54z m-611.3 558.41c-18.65 0-33.82-15.17-33.82-33.82v-412.04c0-18.65 15.18-33.82 33.82-33.82h611.3c18.65 0 33.82 15.18 33.82 33.82V398.06c0 18.65-15.18 33.82-33.82 33.82h-611.3z m308.24-386.22c-21.74 0-39.36 17.62-39.36 39.36v209.1c0 21.74 17.63 39.36 39.36 39.36 21.74 0 39.36-17.62 39.36-39.36v-209.1c0-21.74-17.63-39.36-39.36-39.36zM250.2 469.28c-21.74 0-39.36 17.62-39.36 39.36 0 134.69 30.9 236.27 91.86 301.94 27.44 29.56 60.86 51.7 99.34 65.81C435.42 888.63 472.71 894.84 512.86 894.84c94.6 0 165.26-24.95 216.03-76.28 62.74-63.42 92.45-164.94 90.87-310.35-0.24-21.58-17.81-38.93-39.35-38.93-0.14 0-0.29 0-0.44 0.01-21.74 0.23-39.16 18.05-38.92 39.79 1.33 121.59-21.59 207.08-68.12 254.12-35.22 35.61-87.58 52.92-160.07 52.92-64.78 0-116.07-19.88-152.47-59.09-47-50.64-70.84-134.2-70.84-248.39 0.01-21.74-17.61-39.36-39.35-39.36z m0 0"  horiz-adv-x="1024" />

    
    <glyph glyph-name="jiesuo" unicode="&#58927;" d="M553.55 294.13v-209.1c0-21.74-17.63-39.36-39.36-39.36-21.74 0-39.36 17.62-39.36 39.36v209.1c0 21.74 17.63 39.36 39.36 39.36 21.74 0 39.36-17.62 39.36-39.36zM929.8 398.06v-412.04c0-62.06-50.48-112.54-112.54-112.54h-611.3c-62.06 0-112.54 50.48-112.54 112.54V398.06c0 62.06 50.48 112.54 112.54 112.54h5.45c0.18 134.05 31.06 235.21 91.82 300.66 27.43 29.55 60.84 51.69 99.31 65.79C435.89 889.28 473.17 895.48 513.31 895.48c78.95 0 140.72-17.26 188.82-52.76 27.18-20.06 49.94-46.2 67.64-77.69 17.86-31.77 31.11-70.05 39.39-113.76 4.04-21.35-9.99-41.94-31.34-45.98-21.35-4.05-41.94 9.98-45.98 31.34-23.91 126.28-89.27 180.16-218.53 180.16-64.75 0-116.03-19.88-152.42-59.07-46.83-50.44-70.64-133.58-70.81-247.12h527.17c62.06 0 112.55-50.48 112.55-112.54z m-78.72 0c0 18.65-15.18 33.82-33.82 33.82h-611.3c-18.65 0-33.82-15.17-33.82-33.82v-412.04c0-18.65 15.18-33.82 33.82-33.82h611.3c18.65 0 33.82 15.18 33.82 33.82V398.06z"  horiz-adv-x="1024" />

    
    <glyph glyph-name="mima" unicode="&#58928;" d="M819.78 510.57c1.24 144.15-28.49 244.91-90.89 307.99C678.13 869.88 607.46 894.84 512.86 894.84c-40.15 0-77.44-6.2-110.82-18.44-38.48-14.11-71.9-36.25-99.34-65.81-60.66-65.35-91.54-166.27-91.84-299.98h-4.9c-62.06 0-112.54-50.48-112.54-112.54v-412.04c0-62.06 50.48-112.54 112.54-112.54h611.3c62.06 0 112.54 50.48 112.54 112.54V398.06c0 61.21-49.13 111.16-110.02 112.51zM360.4 757.03c36.4 39.21 87.69 59.09 152.47 59.09 72.48 0 124.84-17.31 160.07-52.92 46.33-46.84 69.24-131.83 68.12-252.6H289.57c0.28 113.17 24.1 196.09 70.83 246.43z m490.68-771.01c0-18.65-15.18-33.82-33.82-33.82h-611.3c-18.65 0-33.82 15.18-33.82 33.82V398.06c0 18.65 15.18 33.82 33.82 33.82h611.3c18.65 0 33.82-15.17 33.82-33.82v-412.04zM590.69 269.94v-3.99c0-39.25-15.35-63.15-46.05-71.71v-143.59c0-19.77-9.89-29.66-29.65-29.66h-1.42c-19.77 0-29.66 9.89-29.66 29.66V193.81c-31.83 8.14-47.76 32.17-47.76 72.14v3.99c0 50.19 25.09 75.28 75.28 75.28h3.99c50.18 0.01 75.27-25.09 75.27-75.28z"  horiz-adv-x="1024" />

    
    <glyph glyph-name="yonghu_zhanghao_wode" unicode="&#58929;" d="M831.119111 235.680834c-44.20187 44.20187-97.430038 79.107554-156.755705 102.068136 84.545323 53.618008 140.692294 148.129244 140.692294 255.63515C815.0557 760.485582 679.541282 896 512.43982 896 345.338357 896 209.823939 760.485582 209.823939 593.38412c0-107.515902 56.146971-202.017141 140.692295-255.63515-59.325667-22.830636-112.553835-57.866266-156.74571-102.068136C112.114016 154.044318 61.6847 41.360536 61.6847-83.1384c0-24.81982 20.171726-44.8616 44.861599-44.8616 24.81982 0 44.8616 20.171726 44.8616 44.8616 0 96.360477 37.564593 187.013295 105.656664 255.235313 68.222018 68.222018 158.74489 105.646668 255.235314 105.646669 96.360477 0 187.013295-37.564593 255.235314-105.646669 68.222018-68.222018 105.656664-158.874836 105.656664-255.235313 0-24.81982 20.171726-44.8616 44.8616-44.8616 24.81982 0 44.8616 20.171726 44.861599 44.8616 0.259893 124.498936-50.169423 237.312665-131.795943 318.819234zM289.45128 593.38412c0 122.899592 100.078952 222.978544 222.978544 222.978544 122.909588 0 222.978544-100.078952 222.978544-222.978544 0-122.909588-100.068956-222.98854-222.978544-222.98854-122.899592 0-222.978544 100.078952-222.978544 222.98854z m0 0"  horiz-adv-x="1024" />

    
    <glyph glyph-name="touxiangtongyong" unicode="&#58931;" d="M874.04 746.04c-200.06 199.67-524.01 199.67-724.08 0-199.67-200.07-199.67-524.01 0-724.08 200.06-199.66 524.01-199.67 724.08 0 199.67 200.06 199.67 524.02 0 724.08zM248.42 21.96c0.05 0.72 0.08 1.44 0.08 2.17 0 70.35 27.42 136.53 77.14 186.34 49.8 49.81 115.89 77.13 186.34 77.13 70.35 0 136.53-27.42 186.34-77.13 49.8-49.81 77.13-115.99 77.13-186.34 0-0.74 0.03-1.47 0.08-2.2C701.59-32.01 610.52-63.89 512-64c-98.53 0.11-189.62 32-263.58 85.96z m100.86 496.08c0 89.73 73.07 162.79 162.79 162.79 89.73 0 162.79-73.06 162.79-162.79 0-89.73-73.06-162.8-162.79-162.8-89.72 0-162.79 73.06-162.79 162.8z m487.7-442.09c-10.99 70.16-44.21 132.98-92.24 180.93-32.27 32.27-71.13 57.75-114.44 74.52 61.72 39.15 102.71 108.14 102.71 186.63 0 122-98.94 220.93-220.93 220.93-122 0-220.93-98.94-220.93-220.93 0-78.49 40.99-147.49 102.71-186.63-43.31-16.66-82.17-42.25-114.44-74.52-48.05-48.04-81.27-110.83-92.36-180.98C110.91 156.19 64.14 264.63 64 384c0.29 247.3 200.7 447.71 448 448 247.3-0.29 447.71-200.7 448-448-0.14-119.35-46.89-227.77-123.02-308.05z"  horiz-adv-x="1024" />

    
    <glyph glyph-name="yinpin" unicode="&#58932;" d="M876.15-64h-728.3C66.33-64 0 1.9 0 82.89V686.11C0 767.1 66.33 833 147.85 833h728.29C957.67 833 1024 767.1 1024 686.11V82.9c0-81-66.33-146.9-147.85-146.9z m-728.3 822.56c-40.21 0-72.93-32.5-72.93-72.45V82.9c0-39.95 32.71-72.45 72.93-72.45h728.29c40.21 0 72.93 32.5 72.93 72.45V686.11c0 39.95-32.71 72.45-72.93 72.45H147.85z m0 0M693 568.63v-271.77c0-34.99-35.51-67.91-79.05-73.22-43.55-5.32-79.06 16.98-79.06 51.97 0 34.99 35.51 67.91 79.06 73.23 29.67 3.76 46.13-5.84 46.13-5.84V498c0 16.46-18.01 10.63-18.01 10.63l-162.91-50.94s-18.53-6.87-18.53-22.29v-187.53c0-34.99-32.4-67.39-75.95-73.74-43.54-6.35-79.05 15.42-79.05 50.41 0 35.12 34.99 68.56 79.05 74.91 29.81 4.28 43.03-4.8 43.03-4.8V488.93c0 22.29 18.02 45.62 40.3 52.1l184.16 56.24c22.3 6.35 40.31-6.35 40.83-28.64z"  horiz-adv-x="1024" />

    
    <glyph glyph-name="shipin" unicode="&#58933;" d="M429.06 182.75c-8.71 0-17.46 1.99-25.63 6.02-19.63 9.71-31.82 29.27-31.82 51.06V529.17c0 21.79 12.19 41.35 31.83 51.06 19.02 9.4 41.25 7.69 58.52-4.37l232.7-144.89 1.31-0.99c14.47-10.87 22.77-27.45 22.77-45.48 0-18.02-8.3-34.6-22.77-45.48l-1.31-0.99-232.7-144.89c-9.86-6.88-21.34-10.39-32.9-10.39z m17.46 314.87v-226.23L628.19 384.5 446.52 497.62z m0 0M876.15-64h-728.3C66.33-64 0 1.9 0 82.89V686.11C0 767.1 66.33 833 147.85 833h728.29C957.67 833 1024 767.1 1024 686.11V82.9c0-81-66.33-146.9-147.85-146.9z m-728.3 822.56c-40.21 0-72.93-32.5-72.93-72.45V82.9c0-39.95 32.71-72.45 72.93-72.45h728.29c40.21 0 72.93 32.5 72.93 72.45V686.11c0 39.95-32.71 72.45-72.93 72.45H147.85z m0 0"  horiz-adv-x="1024" />

    
    <glyph glyph-name="youjian" unicode="&#58935;" d="M916.96 768H107.5C48.32 768 0 722.94 0 667.76v-567.52C0 45.05 48.32 0 107.5 0h809.46c59.18 0 107.5 45.06 107.5 100.24V667.76c0 55.18-48.32 100.24-107.5 100.24z m-10.85-67.33L532.04 418.68c-1.08-0.51-2.17-1.52-2.71-2.53-9.23-8.61-24.43-8.61-33.66 0l-2.71 2.53-374.06 281.99h787.21z m10.85-633.34H107.5c-19.55 0-34.75 14.68-34.75 32.4V648.52l372.97-281.48c18.46-16.71 42.35-24.81 66.24-24.81 23.88 0 47.77 8.1 66.23 24.81l372.98 281.48v-548.28c0.54-18.23-14.66-32.91-34.21-32.91z m0 0"  horiz-adv-x="1024" />

    
    <glyph glyph-name="gongzuotai" unicode="&#58938;" d="M967.11 896H56.89C25.6 896 0 868.07 0 833.94v-713.7c0-34.13 25.6-62.06 56.89-62.06h341.33v-124.12H85.33c-14.22 0-28.44-15.52-28.44-31.03 0-15.52 14.22-31.03 28.44-31.03h853.33c14.22 0 28.44 15.51 28.44 31.03 0 15.51-14.22 31.03-28.44 31.03H625.78V58.18h341.33c31.29 0 56.89 27.93 56.89 62.06V833.94C1024 868.07 998.4 896 967.11 896zM562-38h-97.89v99.18H562V-38z m385 180H80V819h867v-677zM194 344.13V479.81c0 13.57 15.91 27.14 31.82 27.14s31.82-13.57 31.82-27.14v-135.68c0-13.57-15.91-27.13-31.82-27.13S194 330.57 194 344.13z m190.93 0V588.35c0 13.57 15.91 27.14 31.82 27.14s31.82-13.57 31.82-27.14v-244.22c0-13.57-15.91-27.13-31.82-27.13-15.9 0-31.82 13.57-31.82 27.13z m190.94 0V534.08c0 13.57 15.91 27.13 31.82 27.13s31.82-13.57 31.82-27.13v-189.95c0-13.57-15.91-27.13-31.82-27.13s-31.82 13.57-31.82 27.13z m190.93 0V642.62c0 13.57 15.91 27.14 31.82 27.14s31.82-13.57 31.82-27.14v-298.49c0-13.57-15.91-27.13-31.82-27.13s-31.82 13.57-31.82 27.13z"  horiz-adv-x="1024" />

    
    <glyph glyph-name="dingwei" unicode="&#58946;" d="M542.02-112.16c3.33 3.4 7.18 7.38 11.5 11.91 12.29 12.88 25.95 27.62 40.65 44.01 41.98 46.8 83.96 97.53 123.21 150.47 55.69 75.11 101.24 148.48 133.15 218.17 32.42 70.79 49.98 136.1 49.98 195.16C900.51 721.64 726.96 895.19 512.88 895.19S125.26 721.64 125.26 507.55c0-65.41 24.45-141.25 68.89-226.21 30.1-57.55 68.79-118.07 114.06-180.26 39.17-53.82 81.07-105.91 122.97-154.37 14.67-16.96 28.31-32.28 40.57-45.69 4.3-4.71 8.14-8.86 11.46-12.41 2.02-2.16 3.44-3.65 4.21-4.46 13.65-14.3 36.39-14.58 50.38-0.61 0.76 0.78 2.19 2.22 4.22 4.3z m-3.64 44.98c-0.61 0.63-1.86 1.96-3.71 3.94-3.13 3.36-6.79 7.31-10.91 11.82-11.83 12.95-25.04 27.78-39.27 44.25-40.69 47.06-81.39 97.65-119.3 149.74-43.37 59.59-80.25 117.29-108.59 171.46-39.64 75.79-60.86 141.61-60.86 193.54 0 175.15 142 317.15 317.15 317.15 175.16 0 317.15-142 317.15-317.15 0-47.57-15.03-103.48-43.57-165.81-29.62-64.67-72.7-134.06-125.69-205.54-37.84-51.04-78.45-100.11-119.06-145.38-14.2-15.83-27.38-30.05-39.18-42.41-4.11-4.31-7.74-8.07-10.87-11.26-1.84-1.88-3.08-3.12-3.67-3.72l50.38-0.63z m133.08 574.73c0 87.58-71 158.57-158.58 158.57s-158.57-71-158.57-158.57c0-87.58 71-158.58 158.57-158.58s158.58 71 158.58 158.58z m-246.67 0c0 48.65 39.44 88.1 88.1 88.1s88.1-39.44 88.1-88.1-39.44-88.1-88.1-88.1-88.1 39.45-88.1 88.1z m0 0"  horiz-adv-x="1024" />

    
    <glyph glyph-name="ditu" unicode="&#58947;" d="M1010.58 776.34c-8.45 7.18-19.71 10.21-30.6 8.24l-271.59-48.76-69.37 23.26c-19.78 6.65-40.85-4.13-47.39-23.94-6.51-19.82 4.1-41.22 23.73-47.8l78.4-26.3c1.81-0.61 3.68-1.06 5.56-1.39v-306.9l-155 48.15c-13.19 4.08-27.15-3.4-31.22-16.67-4.04-13.31 3.34-27.42 16.54-31.51l169.69-52.71V-16.4l-324.68 92.02V218.08c0 13.93-11.18 25.21-24.98 25.21s-24.98-11.28-24.98-25.21v-143.07L74.92 35.46v711.9c0 20.88-16.78 37.81-37.46 37.81S0 768.25 0 747.36v-756.12c0-11.05 4.77-21.54 13.12-28.73 8.31-7.17 19.36-10.37 30.14-8.61l310.37 49.15 348.08-98.65c3.28-0.93 6.7-1.4 10.12-1.4 2.24 0 4.49 0.21 6.71 0.61l274.71 50.45c17.8 3.26 30.75 18.93 30.75 37.18V747.36c0.01 11.19-4.9 21.8-13.42 28.98z m-61.51-753.55L749.26-13.9V297.42l199.81 35.09v-309.72z m0 360.9L749.26 348.6V666.37l199.81 35.86v-318.54zM166.83 550.7c12.24-24.49 124.81-184.59 159.02-233.07 7.03-9.96 18.39-15.87 30.51-15.87h0.11c12.16 0.04 23.53 6.02 30.53 16.05 34.1 48.87 146.25 210.13 157.76 232.5 15.12 29.36 23.44 63.56 23.44 96.29 0 118.13-95.24 214.23-212.29 214.23s-212.3-96.1-212.3-214.23c0-32.7 7.81-64.94 23.22-95.86v-0.04z m189.08 234.51c75.73 0 137.36-62.19 137.36-138.62 0-20.52-5.46-42.91-14.95-61.37-6.54-12.21-63.22-95.23-122.13-180.1-54.08 77.2-115.34 165.98-122.46 179.65-10.08 20.26-15.2 41.05-15.2 61.82 0 76.43 61.63 138.62 137.38 138.62z m-31.22-193.24a61.93 61.93 0 0 1 62.44 0c19.31 11.25 31.21 32.06 31.21 54.57 0 22.51-11.9 43.3-31.21 54.56-19.29 11.25-43.16 11.25-62.44 0-19.32-11.26-31.22-32.05-31.22-54.56 0-22.51 11.9-43.31 31.22-54.57z m0 0"  horiz-adv-x="1024" />

    
    <glyph glyph-name="wenjianjia" unicode="&#58948;" d="M984.32 527.65h-29.6v97.2c0 21.8-17.89 39.39-39.11 39.39H570.35L434.02 811.19c-7.27 8.66-18.17 14.25-30.73 14.25H108.85c-21.8 0-39.1-17.88-39.1-39.1v-258.68H35.09c-21.8-3.05-36.86-22.91-34.35-44.13L63.6-19.01c1.11-12.59 7.81-23.2 17.88-29.9 7.27-6.15 16.76-10.61 27.37-10.61h806.77c10.33 0 20.11 4.46 27.38 11.15 9.21 6.14 15.93 16.22 17.33 28.23l63.14 501.97c0 2.25 0.54 3.91 0.54 6.44-0.01 21.79-18.17 39.38-39.69 39.38zM128 768h249.05l144.07-163.09c8.19-8.87 18.98-14.08 30.35-14.08H888v-63.17H128V768z m774.54-755.26H125.06L70 463h887.64l-55.1-450.26z"  horiz-adv-x="1024" />

    
    <glyph glyph-name="gongju" unicode="&#58951;" d="M122.053716-128c-27.962523 0-55.915053 10.693317-77.161773 31.960025-20.567146 20.587133-31.930044 48-31.930044 77.341661 0 29.241724 11.362898 56.644597 31.930044 77.351656l477.961274 478.410993c-39.085572 96.569644-17.838851 206.560899 56.594628 281.064335 58.403498 58.46346 142.610868 85.53654 224.999375 72.454715 13.411618-2.168645 24.434728-11.602748 28.632105-24.454715 4.20737-12.851968 0.789507-27.073079-8.754528-36.627108L744.104934 749.091818l31.020613-101.346659 103.975015-33.329169 80 80.07995c9.554029 9.554029 23.635228 12.971893 36.597127 8.754528 12.841974-4.20737 22.276077-15.240475 24.434728-28.662086 13.07183-82.468457-13.981262-166.635853-72.494691-225.219238-70.455965-70.525921-172.612117-93.961274-265.913803-62.560899l-482.398501-482.84822c-21.256715-21.266708-49.209244-31.960025-77.271706-31.960025zM706.378513 813.251718c-28.302311-8.86446-54.326046-24.454716-76.022486-46.181137-58.30356-58.353529-71.365397-147.188007-32.509681-220.891943 7.385384-13.991255 4.767021-31.160525-6.366021-42.313554l-495.690194-496.279825c-6.935665-6.935665-10.793254-16.379763-10.793254-26.38351 0-10.003748 3.857589-19.337914 10.793254-26.38351 14.540912-14.560899 38.17614-14.560899 52.617114 0l498.988133 499.447845c10.453467 10.46346 26.363523 13.531543 40.004997 7.505309 72.044972-31.960025 154.083698-16.71955 209.319175 38.565896 21.706433 21.726421 37.386633 47.770144 46.141162 76.092442l-28.522174-28.552154c-9.554029-9.544035-23.61524-12.971893-36.477201-8.86446l-142.730794 45.841349c-11.242973 3.637726-19.997502 12.51218-23.415365 23.77514l-42.953154 140.022486c-3.867583 12.732042-0.459713 26.613367 8.974391 36.057465l28.642098 28.542161z m215.795128-338.398501h0.339788-0.339788zM230.226109 450.178638c-19.317926 0-37.37664 7.505309-50.908183 21.046846L21.026858 629.77639C7.505309 643.317926 0 661.396627 0 680.734541s7.505309 37.426608 21.026858 50.958151l74.433479 74.503435c28.072455 28.092442 73.753904 28.092442 101.816365 0l158.410993-158.560899c13.531543-13.531543 21.026858-31.620237 21.026858-50.958151s-7.495315-37.426608-21.026858-50.958151l-74.433479-74.503436c-13.641474-13.531543-31.700187-21.036852-51.028107-21.036852z m0 71.995003l-25.454092-25.484072 25.454092 25.484072z m-83.857589 233.064335L71.935041 680.734541l158.291068-158.450968 74.54341 74.503435-158.400999 158.450968z m261.706433-376.604622c-9.204247 0-9.204247-12.851968-16.249844-5.796377L276.137414 499.88757c-14.091193 14.101187-14.091193 36.846971 0 50.958151 14.091193 14.101187 36.816989 14.101187 50.908183 0l54.096189-54.146158 61.711431-72.904435c14.091193-14.101187 14.091193-36.856964 0-50.958151-7.045597-7.05559-25.574016 5.796377-34.778264 5.796377z m420.687071-503.435353a35.847595 35.847595 0 0 0-25.454091 10.573392L594.098688 95.170518c-6.705809 6.705809-10.563398 15.92005-10.563398 25.474079 0 9.554029 3.747658 18.76827 10.563398 25.484073l86.25609 86.33604c14.091193 14.111181 36.816989 14.111181 50.908183 0l209.319175-209.399126c6.705809-6.715803 10.573392-15.930044 10.573392-25.484072s-3.747658-18.76827-10.573392-25.474079l-86.366021-86.33604c-6.925671-7.05559-16.129919-10.573392-25.454091-10.573392z m-158.301062 245.45659l158.410993-158.5609 35.337914 35.377889-158.401 158.670831-35.347907-35.48782z m-16.359775 15.810119c-9.204247 0-18.408495 3.527795-25.454091 10.583385l-104.094941 104.634603c-14.091193 14.101187-14.091193 36.856964 0 50.958151 14.091193 14.111181 36.816989 14.111181 50.908182 0l104.084947-104.644597c14.091193-14.111181 14.091193-36.856964 0-50.958151a35.849594 35.849594 0 0 0-25.444097-10.573391z m0 0"  horiz-adv-x="1024" />

    
    <glyph glyph-name="shijian_zhongbiao" unicode="&#58953;" d="M874.04 746.04c-200.06 199.67-524.01 199.67-724.08 0-199.67-200.07-199.67-524.01 0-724.08 200.06-199.66 524.01-199.67 724.08 0 199.67 200.06 199.67 524.02 0 724.08zM512-64c-247.3 0.29-447.71 200.7-448 448 0.29 247.3 200.7 447.71 448 448 247.3-0.29 447.71-200.7 448-448-0.28-247.3-200.7-447.71-448-448z m269.13 432.66c0-23-18.64-41.66-41.65-41.66H515.59c-29.71 0-53.8 24.09-53.8 53.8V687.99c0 23 18.64 41.65 41.65 41.65s41.65-18.65 41.65-41.65v-277.68h194.38c23.01 0 41.66-18.66 41.66-41.65z"  horiz-adv-x="1024" />

    
    <glyph glyph-name="liebiao2" unicode="&#58956;" d="M0.799742 828.121875C0.799742 868.368905 34.898753 895.200258 86.042272 895.200258h852.395302c51.153515 0 85.242529-26.831353 85.242529-67.078383 0-40.257027-34.089014-67.078383-85.242529-67.078383H86.042272C34.898753 761.043492 0.799742 787.874845 0.799742 828.121875z m937.587848-380.107505H85.992288c-51.143518 0-85.242529-26.831353-85.24253-67.078383 0-40.257027 34.099011-67.078383 85.24253-67.078383h852.395302c51.153515 0 85.242529 26.831353 85.242529 67.078383-0.009997 40.237033-34.099011 67.078383-85.242529 67.078383z m0-441.857604H85.992288c-51.143518 0-85.242529-26.831353-85.24253-67.078383 0-40.257027 34.099011-67.078383 85.24253-67.078383h852.395302c51.153515 0 85.242529 26.831353 85.242529 67.078383-0.009997 40.237033-34.099011 67.078383-85.242529 67.078383z"  horiz-adv-x="1024" />

    
    <glyph glyph-name="shouqi1" unicode="&#58959;" d="M959.047114 843.180341v-920.064061c0-34.07978-16.339895-51.10967-49.029683-51.10967-32.679789 0-49.029684 17.03989-49.029684 51.10967V843.180341c0 34.07978 16.339895 51.10967 49.029684 51.10967 32.689789 0.01 49.029684-17.02989 49.029683-51.10967z m-315.407964 0.409997c0 45.059709-58.269624 67.619564-92.319404 35.71977L97.062678 454.662849c-42.249727-39.499745-42.249727-103.529332 0-143.029077l454.257068-424.717258c34.05978-31.859794 92.319404-9.29994 92.319404 35.719769-0.04 13.529913-5.769963 26.459829-15.829898 35.799769L173.542185 383.15331 627.809252 807.870569c10.049935 9.30994 15.769898 22.219857 15.829898 35.719769z"  horiz-adv-x="1024" />

    
    <glyph glyph-name="zhankai1" unicode="&#58960;" d="M65.37-76.89V843.18c0 34.08 16.34 51.11 49.03 51.11 32.68 0 49.03-17.04 49.03-51.11v-920.07c0-34.08-16.34-51.11-49.03-51.11s-49.03 17.04-49.03 51.11z m315.42-0.4c0-45.06 58.27-67.62 92.32-35.72l454.26 424.65c42.25 39.5 42.25 103.53 0 143.03L473.11 879.38c-34.06 31.86-92.32 9.3-92.32-35.72 0.04-13.53 5.77-26.46 15.83-35.8l454.27-424.72-454.27-424.71c-10.05-9.32-15.77-22.22-15.83-35.72z"  horiz-adv-x="1024" />

    
    <glyph glyph-name="xianshi" unicode="&#58961;" d="M1013.03 425.42C910.27 604.62 718.5 715.91 512.6 715.91c-205.89 0-397.67-111.28-500.39-290.39-14.17-24.56-14.17-54.98-0.05-79.44C114.93 166.87 306.7 55.59 512.6 55.59s397.67 111.28 500.39 290.39c14.17 24.56 14.17 54.98 0.04 79.44z m-60.67-44.55C861.98 223.4 693.49 125.56 512.6 125.56S163.22 223.4 72.79 380.97c-1.64 2.87-1.64 6.69 0.04 9.65C163.22 548.1 331.71 645.94 512.6 645.94s349.38-97.84 439.81-255.41c1.64-2.87 1.64-6.69-0.05-9.66zM713.37 399.3c0.3-4.5 0.69-8.98 0.69-13.56 0-111.26-90.19-201.45-201.45-201.45s-201.45 90.19-201.45 201.45c0 95.87 67.03 175.93 156.73 196.29 7-104.91 94.09-187.89 200.77-187.89 15.39 0.01 30.31 1.89 44.71 5.16z"  horiz-adv-x="1024" />

    
    <glyph glyph-name="yincang" unicode="&#58962;" d="M512.75 204.8c-208.09 0-402.17 102.49-506.48 267.55-10.36 16.34-5.48 38.01 10.9 48.33 16.34 10.4 38.01 5.47 48.33-10.91C157.08 364.89 328.48 274.9 512.75 274.9c184.27 0 355.62 89.99 447.21 234.87 10.31 16.38 31.99 21.31 48.32 10.91 16.38-10.31 21.27-31.99 10.91-48.33C914.87 307.29 720.79 204.8 512.75 204.8z m-180.3-161.58c-2.01 0-4.02 0.18-6.07 0.5-19.07 3.33-31.85 21.49-28.52 40.57l27.24 156.02c3.38 19.08 21.45 31.44 40.57 28.52 19.07-3.33 31.85-21.49 28.52-40.57l-27.24-156.02c-3.01-17.02-17.79-29.02-34.5-29.02z m356.62 0c-16.24 0-30.85 11.41-34.27 27.97l-32.21 156.02c-3.93 18.94 8.26 37.47 27.24 41.39 18.67 3.79 37.47-8.26 41.39-27.24l32.21-156.02c3.93-18.94-8.26-37.47-27.24-41.39-2.37-0.51-4.74-0.73-7.12-0.73zM94.61 158.4c-4.02 0-8.08 0.68-12 2.14-18.21 6.62-27.56 26.74-20.9 44.9l56.99 156.07c6.62 18.25 26.78 27.61 44.9 20.9 18.21-6.61 27.56-26.74 20.9-44.9l-56.99-156.07c-5.16-14.24-18.61-23.04-32.9-23.04z m832.3-26.02c-13.92 0-27.11 8.35-32.58 22.13l-61.92 156.07c-7.12 17.98 1.69 38.33 19.67 45.5 17.98 7.16 38.33-1.65 45.5-19.67l61.92-156.07c7.12-17.98-1.65-38.33-19.67-45.5a35.044 35.044 0 0 0-12.92-2.46z m0 0"  horiz-adv-x="1024" />

    
    <glyph glyph-name="lianjiezhuangtai" unicode="&#58963;" d="M969.586403 271.230253l-129.946199 130.564991c-34.911813 35.071501-77.458713 52.607251-127.401169 52.607251-50.830721 0-94.146121-18.30425-129.946199-55.172242l-54.912749 55.172242c36.568577 36.089513 54.912749 79.74425 54.912749 131.203743 0 50.172008-17.32616 92.678986-51.848733 127.361247L401.885195 842.753996C367.362622 878.204756 324.815721 896 274.484025 896c-49.942456 0-92.229864-17.406004-126.762417-52.098246l-91.850604-91.521247c-35.291072-34.682261-52.996491-77.179259-52.996492-127.351267 0-50.172008 17.455906-92.928499 52.357739-128l129.946199-130.684757c34.901832-35.071501 77.458713-52.617232 127.40117-52.617232 50.830721 0 94.156101 18.30425 129.946198 55.172242l54.912749-55.172242c-36.688343-36.089513-54.912749-79.74425-54.912749-131.203742 0-50.172008 17.32616-92.669006 51.858714-127.361248l128.538947-129.916257c34.522573-35.460741 76.949708-53.246004 127.40117-53.246004 49.942456 0 92.239844 17.406004 126.762417 52.227992l91.850604 91.521248c35.291072 34.692242 52.996491 77.179259 52.996492 127.361247 0.019961 50.042261-17.435945 92.798752-52.347759 128.119766zM460.790146 530.443977c-1.626823 1.337388-5.90846 5.938402-13.453723 13.813021-7.395556 7.575205-12.555478 12.924756-15.519688 15.599532-2.95423 2.525068-7.545263 6.237817-13.753139 10.838831-6.357583 4.601014-12.41575 7.724912-18.473918 9.511423-6.058168 1.77653-12.715166 2.664795-19.961014 2.664795-19.212476 0-35.620429-6.676959-49.223859-20.350253-13.603431-13.513606-20.250448-30.001404-20.250449-49.453412 0-7.28577 1.027992-13.97271 2.664796-20.050838 1.626823-5.938402 4.870487-12.325926 9.45154-18.563743 4.581053-6.237817 8.283821-10.998519 10.788928-13.813021 2.515088-2.824483 7.68499-8.024327 15.529668-15.589552 7.68499-7.575205 12.276023-12.026511 13.743158-13.513606-14.481715-15.010682-31.917661-22.585887-52.17809-22.585887-19.801326 0-36.069552 6.387524-49.223859 19.601715L110.145 580.047096C96.541569 593.570682 89.894551 610.048499 89.894551 629.510487c0 19.012865 6.647018 35.201248 20.250449 48.864562l106.591813 106.3423c14.042573 13.074464 30.300819 19.611696 49.223859 19.611696 19.222456 0 35.630409-6.68694 49.22386-20.350254l149.168655-150.755555c13.59345-13.513606 20.250448-30.001404 20.250448-49.463392-0.009981-20.350253-7.844678-38.165458-23.813489-53.315867z m455.849669-443.334113L809.62882-19.511891c-13.503626-12.824951-29.981442-19.082729-49.423469-19.082729-19.89115 0-36.209279 6.417466-49.42347 19.68156L561.034356 132.291618c-13.663314 13.573489-20.330292 30.12117-20.330292 49.653021 0 20.430097 8.014347 38.325146 24.043041 53.385731 1.626823-1.347368 6.078129-6.118051 13.503626-13.872904 7.425497-7.754854 12.615361-13.124366 15.589551-15.649435 2.964211-2.535049 7.565224-6.257778 13.793061-10.888733 6.387524-4.620975 12.475634-7.904561 18.553762-9.541364 6.088109-1.936218 12.765068-2.684756 20.040858-2.684757 19.29232 0 35.770136 6.716881 49.423469 20.430098 13.653333 13.573489 20.330292 30.12117 20.330293 49.653021 0 7.305731-1.037973 14.012632-2.674776 20.130683-1.626823 5.958363-4.900429 12.375828-9.501442 18.643586-4.601014 6.257778-8.164055 10.888733-10.838831 13.862924-2.525068 2.844444-7.714932 8.054269-15.579571 15.659415-7.714932 7.605146-12.315945 12.076413-13.803041 13.563509 14.541598 15.509708 32.057388 23.414269 52.397661 23.414269 19.29232 0 35.760156-6.716881 49.413489-20.430097l151.384328-152.102924c13.653333-13.563509 20.330292-30.111189 20.330292-49.653022 0.009981-19.082729-6.816686-35.490682-20.470019-48.754775z"  horiz-adv-x="1024" />

    
    <glyph glyph-name="duankaizhuangtai" unicode="&#58964;" d="M230.370556 241.590596c3.709203-3.709203 5.498819-8.438187 5.498818-14.066978 0-5.628791-1.789616-10.477749-5.498818-14.066978-3.709203-3.709203-8.438187-5.498819-14.066978-5.498818H19.555848c-5.618793 0-10.477749 1.789616-14.05698 5.498818-3.709203 3.709203-5.498819 8.438187-5.498819 14.066978 0 5.618793 1.789616 10.477749 5.498819 14.066978 3.709203 3.709203 8.438187 5.498819 14.05698 5.498818h196.74773c5.628791 0 10.487747-1.789616 14.066978-5.498818z m403.213372 352.074359l-146.888442-10.997637-167.863936 168.4938c-11.507528 11.507528-25.434536 17.126321-41.801019 17.12632-15.976568 0-29.913573-5.488821-41.801019-16.486458l-90.380582-89.74072c-11.507528-11.507528-17.126321-25.184589-17.126321-41.291128 0-16.366484 5.618793-30.433462 17.126321-41.80102l168.363828-168.373826-11.12761-147.518306c-14.316924 8.688133-25.824452 17.126321-34.382613 25.814454L61.366865 495.47605c-34.392611 35.292418-51.518931 77.093437-51.518931 125.413056 0 49.089453 17.516237 90.770499 52.158794 124.773193l90.380582 89.74072c34.012693 34.002695 75.68374 51.009041 124.773193 51.009041 49.469372 0 91.410361-17.516237 125.413056-52.158794l205.185917-205.945754c8.558161-8.818105 17.256293-20.325633 25.824452-34.642557zM269.612125 115.027787L112.375906-42.478374c-4.479038-3.709203-9.208022-5.498819-14.066978-5.498818-4.858956 0-9.717912 1.789616-14.066977 5.498818-3.709203 4.089121-5.498819 8.818105-5.498819 14.066978 0 5.238874 1.789616 10.097831 5.498819 14.066978l157.246216 157.376189c4.089121 3.709203 8.818105 5.488821 14.066978 5.48882 5.238874 0 10.097831-1.789616 14.05698-5.48882 3.709203-4.099119 5.498819-8.818105 5.498819-14.066978 0.129972-5.1189-1.659643-9.977856-5.498819-13.937006z m103.947667-25.184589v-196.74773c0-5.618793-1.789616-10.477749-5.498818-14.05698-3.709203-3.709203-8.438187-5.498819-14.066978-5.498819-5.628791 0-10.477749 1.789616-14.066978 5.498819-3.709203 3.709203-5.498819 8.428189-5.498818 14.05698V89.843198c0 5.618793 1.789616 10.477749 5.498818 14.066978 3.709203 3.709203 8.438187 5.498819 14.066978 5.498818 5.618793 0 10.477749-1.789616 14.066978-5.498818 3.699205-3.719201 5.498819-8.448185 5.498818-14.066978z m639.202672 58.92734c0-49.089453-17.516237-90.760501-52.158794-124.773194l-90.39058-89.740719c-34.002695-34.002695-75.68374-51.009041-124.773194-51.009041-49.599344 0-91.400363 17.516237-125.413055 52.158794l-205.185918 205.955751c-8.698131 8.688133-17.136318 20.065689-25.824451 34.382613l146.888442 11.117612 167.723965-168.363828c11.127609-11.117611 24.934643-16.61643 41.801019-16.876375 16.876374-0.259944 30.81338 5.108902 41.80102 16.236512l90.380582 89.74072c11.507528 11.507528 17.136318 25.184589 17.136318 41.291129 0 16.366484-5.628791 30.423464-17.136318 41.801019L709.137696 359.585245l11.117611 146.888442c14.316924-8.688133 25.824452-17.126321 34.382613-25.824451l206.465642-206.465643c34.522583-35.412392 51.658901-77.083439 51.658902-125.413055zM688.1722 876.444201v-196.74773c0-5.628791-1.789616-10.487747-5.498819-14.066977-3.709203-3.709203-8.428189-5.498819-14.066977-5.498819-5.618793 0-10.477749 1.789616-14.05698 5.498819-3.709203 3.709203-5.498819 8.438187-5.498819 14.066977V876.444201c0 5.618793 1.789616 10.477749 5.498819 14.05698 3.709203 3.709203 8.428189 5.498819 14.05698 5.498819 5.628791 0 10.487747-1.789616 14.066977-5.498819 3.709203-3.709203 5.498819-8.308215 5.498819-14.05698z m250.306223-92.81006L780.98226 626.257952c-4.46904-3.709203-9.198024-5.488821-14.05698-5.48882-4.858956 0-9.717912 1.789616-14.066977 5.48882-3.709203 4.099119-5.498819 8.818105-5.498819 14.066978 0 5.238874 1.789616 10.097831 5.498819 14.066978l157.236218 157.366191c4.089121 3.709203 8.818105 5.498819 14.066978 5.498818s10.097831-1.789616 14.066978-5.498818c3.709203-4.089121 5.498819-8.818105 5.498819-14.066978 0.119974-5.238874-1.669641-9.967858-5.248873-14.05698z m78.623109-227.431138c3.709203-3.709203 5.498819-8.438187 5.498818-14.066978 0-5.628791-1.789616-10.477749-5.498818-14.056979-3.709203-3.709203-8.438187-5.498819-14.066978-5.498819H806.16685c-5.618793 0-10.477749 1.789616-14.066978 5.498819-3.709203 3.699205-5.498819 8.428189-5.498819 14.056979 0 5.618793 1.789616 10.487747 5.498819 14.066978 3.709203 3.709203 8.438187 5.498819 14.066978 5.498819h196.747729c5.748765 0 10.477749-1.789616 14.186953-5.498819z m0 0"  horiz-adv-x="1024" />

    
    <glyph glyph-name="zhengque_chenggong" unicode="&#58966;" d="M874.04 746.04c-200.06 199.67-524.01 199.67-724.08 0-199.67-200.07-199.67-524.01 0-724.08 200.06-199.66 524.01-199.67 724.08 0 199.67 200.06 199.67 524.02 0 724.08zM512-64c-247.3 0.29-447.71 200.7-448 448 0.29 247.3 200.7 447.71 448 448 247.3-0.29 447.71-200.7 448-448-0.28-247.3-200.7-447.71-448-448z m293.78 598.19l-326.13-362.6a39.791 39.791 0 0 0-25.4-12.94c-2.44-0.46-4.91-0.69-7.38-0.69-10.57 0-21.13 4.2-28.95 12.48L225.72 374.5c-15.07 16.01-14.29 41.18 1.66 56.25 16.06 15.08 41.22 14.3 56.25-1.66l163.99-174.12 299.02 332.45c14.76 16.26 39.88 17.61 56.19 2.95 16.32-14.7 17.67-39.82 2.95-56.18z"  horiz-adv-x="1024" />

    
    <glyph glyph-name="cuowu_shibai" unicode="&#58968;" d="M874.04 746.04c-200.06 199.67-524.01 199.67-724.08 0-199.67-200.07-199.67-524.01 0-724.08 200.06-199.66 524.01-199.67 724.08 0 199.67 200.06 199.67 524.02 0 724.08zM512-64c-247.3 0.29-447.71 200.7-448 448 0.29 247.3 200.7 447.71 448 448 247.3-0.29 447.71-200.7 448-448-0.28-247.3-200.7-447.71-448-448z m242.15 259.82c14.83-14.83 14.83-38.86 0-53.69-7.42-7.41-17.11-11.12-26.85-11.12-9.74 0-19.43 3.71-26.84 11.12L513.12 329.47 325.77 142.12c-7.42-7.41-17.11-11.12-26.85-11.12-9.74 0-19.43 3.71-26.84 11.12-14.83 14.83-14.83 38.86 0 53.69l187.34 187.34L272.08 570.5c-14.83 14.83-14.83 38.86 0 53.69 14.83 14.83 38.86 14.83 53.69 0l187.34-187.34 187.34 187.34c14.83 14.83 38.86 14.83 53.69 0 14.83-14.83 14.83-38.86 0-53.69L566.81 383.16l187.34-187.34z"  horiz-adv-x="1024" />

    
    <glyph glyph-name="jinggao_tixing" unicode="&#58969;" d="M874.04 746.04c-200.06 199.67-524.01 199.67-724.08 0-199.67-200.07-199.67-524.01 0-724.08 200.06-199.66 524.01-199.67 724.08 0 199.67 200.06 199.67 524.02 0 724.08zM512-64c-247.3 0.29-447.71 200.7-448 448 0.29 247.3 200.7 447.71 448 448 247.3-0.29 447.71-200.7 448-448-0.28-247.3-200.7-447.71-448-448z m51.57 695.67l-12.62-334.12c-0.77-20.5-17.61-36.71-38.12-36.71-20.51 0-37.35 16.22-38.12 36.71l-12.63 334.12c-0.03 0.64-0.04 1.28-0.04 1.92 0 28.05 22.74 50.79 50.79 50.79 0.64 0 1.28-0.01 1.92-0.04 28.01-1.06 49.87-24.64 48.82-52.67z m-0.74-487.85c0-28.51-22.9-50.83-50.83-50.83-29.24 0-50.19 23.55-50.19 50.83 0 27.88 22.23 50.18 50.18 50.18v0.01c27.94 0 50.84-22.32 50.84-50.19z"  horiz-adv-x="1024" />

    
    <glyph glyph-name="gengduo" unicode="&#58977;" d="M227.46 384.57c0-29.2-15.58-56.18-40.87-70.78a81.728 81.728 0 0 0-81.73 0A81.74 81.74 0 0 0 64 384.57c0 45.14 36.59 81.73 81.73 81.73 45.13-0.01 81.73-36.59 81.73-81.73z m326.91 70.78a81.777 81.777 0 0 1-81.73 0 81.719 81.719 0 0 1-40.86-70.78c0-45.14 36.59-81.73 81.73-81.73s81.73 36.59 81.73 81.73c-0.01 29.19-15.59 56.18-40.87 70.78z m367.77 0a81.777 81.777 0 0 1-81.73 0 81.728 81.728 0 0 1-40.87-70.78c0-29.2 15.58-56.18 40.87-70.78a81.728 81.728 0 0 1 81.73 0A81.719 81.719 0 0 1 963 384.57c0 29.19-15.58 56.18-40.86 70.78z"  horiz-adv-x="1024" />

    
    <glyph glyph-name="qianjin_xiayibu_youjiantou_xiayiye" unicode="&#58978;" d="M673.88 386.16L250.38 807.74c-20 19.91-20 52.24 0 72.14 19.99 19.91 52.47 19.91 72.47 0l457.37-455.29c10.57-10.53 15.67-24.6 14.9-38.42 0.64-13.82-4.33-27.89-14.9-38.42l-457.25-455.3c-20-19.9-52.48-19.9-72.47 0-20 19.91-20 52.24 0 72.14l423.38 421.57z m0 0"  horiz-adv-x="1024" />

    
    <glyph glyph-name="houtui_shangyibu_zuojiantou_shangyiye" unicode="&#58979;" d="M356.7 386.17L780.2-35.4c20-19.91 20-52.24 0-72.14-19.99-19.91-52.47-19.91-72.47 0L250.36 347.75c-10.57 10.53-15.67 24.6-14.9 38.42-0.64 13.82 4.33 27.89 14.9 38.42L707.6 879.88c20 19.9 52.48 19.9 72.47 0 20-19.91 20-52.24 0-72.14L356.7 386.17z m0 0"  horiz-adv-x="1024" />

    
    <glyph glyph-name="zhankai_xiala_xiajiantou" unicode="&#58980;" d="M511.97 225.58L936.3 649.07c20.04 20 52.58 20 72.61 0 20.04-19.99 20.04-52.47 0-72.47L550.64 119.23c-10.59-10.57-24.76-15.67-38.67-14.9-13.91-0.64-28.07 4.33-38.67 14.9L15.03 576.48c-20.03 20-20.03 52.48 0 72.47 20.04 20 52.58 20 72.61 0l424.33-423.37z m0 0"  horiz-adv-x="1024" />

    
    <glyph glyph-name="shouqi_shangjiantou" unicode="&#58981;" d="M511.97 542.75L87.64 119.26c-20.04-20-52.58-20-72.61 0-20.04 19.99-20.04 52.47 0 72.47L473.3 649.1c10.59 10.57 24.76 15.67 38.67 14.9 13.91 0.64 28.07-4.33 38.67-14.9l458.27-457.25c20.03-20 20.03-52.48 0-72.47-20.04-19.99-52.58-19.99-72.61 0L511.97 542.75z m0 0"  horiz-adv-x="1024" />

    
    <glyph glyph-name="fanhui2" unicode="&#58983;" d="M811.95 509.22C866.82 454.35 897 381.4 897 303.8s-30.18-150.55-84.93-205.42c-54.63-54.5-127.21-84.69-204.19-85.05H317.53c-22.85 0-41.42 18.57-41.42 41.43 0 22.85 18.57 41.42 41.42 41.42h289.01c114.5 0 207.61 93.12 207.61 207.62s-93.12 207.61-207.61 207.61H259.97l102.16-102.04c15.03-15.27 15.03-39.95 0-54.99-15.16-15.15-39.84-15.15-54.99 0L139.37 522.17c-15.15 15.15-15.15 39.83 0 54.99l167.9 167.9c15.27 15.03 39.84 15.16 54.99 0 15.16-15.15 15.16-39.83 0-54.99l-95.68-95.68h344.85c0.73-0.12 1.47-0.12 2.2-0.12 74.9-1.83 145.41-32.14 198.32-85.05z"  horiz-adv-x="1024" />

    
    <glyph glyph-name="tuichu" unicode="&#58984;" d="M945.449575 140.900106v-130.405803c-0.10998-76.465812-62.08848-138.40432-138.544294-138.494303H168.483738c-76.455814 0.089983-138.40432 62.038489-138.494302 138.494303V757.395718C30.049424 833.881526 92.007928 895.880022 168.483738 896H806.945274c76.485808-0.10998 138.464308-62.108476 138.544293-138.604282v-93.852586c0-21.206065-17.196809-38.402874-38.402874-38.402875-21.206065 0-38.402874 17.196809-38.402875 38.402875v93.852586c0 34.103672-27.694861 61.798533-61.748542 61.798533H168.483738c-34.043683 0-61.688554-27.744852-61.688554-61.798533v-746.901415c0-33.993693 27.694861-61.688554 61.688554-61.688554H806.945274c34.043683 0 61.748543 27.694861 61.748543 61.688554V140.900106c0.749861 20.646169 17.716713 36.993136 38.37288 36.993136 20.676164 0.009998 37.623019-16.346967 38.382878-36.993136z m58.619123 243.094895a38.235905 38.235905 0 0 1-11.267909 27.134965L799.52665 604.364112a38.407874 38.407874 0 0 1-37.103115 9.938156 38.406874 38.406874 0 0 1-27.16496-27.164959c-3.55934-13.25754 0.239955-27.394917 9.938156-37.103116l127.746297-127.696306H483.675256c-21.206065 0-38.402874-17.196809-38.402875-38.402875 0-21.206065 17.196809-38.402874 38.402875-38.402874h389.327761L745.25672 217.805837c-14.557299-15.057206-14.357336-39.012761 0.439918-53.830012 14.807253-14.817251 38.75281-15.03721 53.830012-0.489909L992.810787 356.760054a38.678823 38.678823 0 0 1 11.257911 27.234947z m0 0"  horiz-adv-x="1024" />

    
    <glyph glyph-name="quxiao_guanbi" unicode="&#58985;" d="M581.54 383.29l364.95 364.94c18.42 18.42 18.42 48.79 0 67.21l-1.99 1.99c-18.42 18.42-48.79 18.42-67.21 0L512.34 452 147.4 817.44c-18.42 18.42-48.79 18.42-67.22 0l-1.99-1.99c-18.92-18.42-18.92-48.79 0-67.21L443.13 383.3 78.19 18.35c-18.42-18.42-18.42-48.79 0-67.22l1.99-1.99c18.42-18.42 48.79-18.42 67.22 0l364.94 364.94 364.94-364.94c18.42-18.42 48.79-18.42 67.21 0l1.99 1.99c18.42 18.42 18.42 48.79 0 67.22L581.54 383.29z m0 0"  horiz-adv-x="1024" />

    
    <glyph glyph-name="queding_queren" unicode="&#58986;" d="M944.78 618.6l-486-540.33c-10.23-11.31-23.8-17.8-37.85-19.28-3.63-0.68-7.32-1.02-11-1.02-15.75 0-31.49 6.25-43.15 18.6L80.37 380.65c-22.46 23.85-21.3 61.36 2.48 83.82 23.93 22.47 61.43 21.3 83.82-2.47l244.38-259.47 445.6 495.41c22 24.23 59.42 26.24 83.74 4.4 24.3-21.92 26.31-59.35 4.39-83.74z"  horiz-adv-x="1024" />

    
    <glyph glyph-name="xinzeng_tianjia" unicode="&#58987;" d="M552.885889 343.075348h431.363907c21.777886 0 39.721426 17.953526 39.721426 39.721426v2.356525c0 21.767901-17.953526 39.721426-39.721426 39.721427l-431.663465-0.299559 0.299558 431.663465c0 21.767901-17.953526 39.721426-39.721426 39.721427h-2.356525c-22.067459 0.299558-40.020985-17.653967-39.721427-39.721427v-431.363906h-431.363907C17.944718 424.874726 0.001178 406.9212 0.001178 385.153299v-2.346539c0-21.777886 17.953526-39.721426 39.721426-39.721427h431.363907v-431.363907c0-21.777886 17.953526-39.721426 39.721427-39.721426h2.356525c21.777886 0 39.721426 17.953526 39.721426 39.721426V343.075348z"  horiz-adv-x="1025" />

    
    <glyph glyph-name="shanchu" unicode="&#58988;" d="M939.5 708.38H710.86C707.74 812.54 622.9 895.26 518.57 895.26S329.56 812.55 325.96 708.71H82.75c-27.03 0-49.14-21.95-49.14-49.14 0-27.02 21.95-49.14 49.14-49.14h54.21v-549.65c0-103.19 69.94-187.53 156.42-187.53h440.58c86.32 0 156.42 83.86 156.42 187.53V610.11h49.13c27.03 0 49.14 21.95 49.14 49.14-0.02 27.02-21.96 49.13-49.15 49.13zM518.74 803.21c53.72 0 97.13-41.43 100.23-94.5H418.01c3.6 53.22 47.01 94.5 100.73 94.5z m279.41-742.92c0-56.18-33.74-95.65-64.37-95.65H293.21v0.49c-30.63 0-64.37 39.31-64.37 95.65V610.11h569.31v-549.82z m-175.73 73.54V422.58c0 28.17 18.5 50.61 40.94 50.61 22.6 0 40.95-22.44 40.95-50.61v-288.75c0-28.17-18.51-50.61-40.95-50.61-23.1 0-40.94 22.6-40.94 50.61z m-304.15 0V422.58c0 28.17 18.5 50.61 40.94 50.61 22.6 0 40.95-22.44 40.95-50.61v-288.75c0-28.17-18.51-50.61-40.95-50.61-22.93 0-40.94 22.6-40.94 50.61z m148.22 0V422.58c0 28.17 18.51 50.61 40.94 50.61 22.6 0 40.95-22.44 40.95-50.61v-288.75c0-28.17-18.51-50.61-40.95-50.61-22.43 0-40.94 22.6-40.94 50.61z"  horiz-adv-x="1024" />

    
    <glyph glyph-name="fabu" unicode="&#58989;" d="M1023.62 852.77c0 23.02-18.83 41.85-41.85 41.85-7.84 0-14.64-2.1-20.92-5.75L25.48 395.04c-13.6-6.8-22.49-21.97-22.49-37.67 0-15.69 8.89-29.81 23.02-37.14l242.73-132.88c6.27-2.61 13.08-4.18 18.83-4.18 16.22 0 30.35 8.9 37.67 23.02 9.94 20.4 1.57 46.04-18.83 56.5l-169.49 95.73 679.03 359.91-426.9-518.95c-6.27-8.37-9.94-17.79-9.94-27.2v-256.86c0-22.49 19.36-41.85 41.85-41.85 22.49 0 41.85 19.36 41.85 41.85V156.49l454.61 553.47-87.88-704.13-255.3 121.89c-5.23 3.14-11.51 4.19-18.31 4.19-16.22 0-30.34-8.89-37.66-23.54-4.71-9.94-5.76-21.45-2.1-31.91 3.66-10.99 10.99-19.36 20.92-24.07l308.13-145.43c5.23-3.14 11.51-4.18 18.31-4.18 6.28 0 13.08 1.57 19.36 4.71 12.03 6.28 20.4 17.79 21.97 30.87l118.75 909.21v5.2z"  horiz-adv-x="1024" />

    
    <glyph glyph-name="baocun" unicode="&#58990;" d="M898.363984 895.080395h-36.144469v0.919605H166.398501v-0.919605h-36.14447C59.564406 895.080395 2.259029 837.884971 2.259029 767.195346v-767.310297c0-70.689626 57.305377-127.885049 127.995002-127.885049h768.109953c70.689626 0 127.995002 57.315372 127.995002 127.885049V767.195346C1026.358986 837.775019 968.933661 895.080395 898.363984 895.080395zM248.753114 813.745344h530.871891V649.266019c0-30.316973-26.428644-54.906407-59.024638-54.906408h-412.822615c-32.60599 0-59.024638 24.589434-59.024638 54.906408V813.745344z m696.170864-798.876733c0-33.865448-27.568154-61.423607-61.543556-61.423607H145.007692c-33.975401 0-61.543556 27.448206-61.543555 61.423607V752.321737c0 33.855453 27.558159 61.423607 61.543555 61.423607h21.27086v-173.525438c0-70.689626 56.625669-127.885049 126.515638-127.88505H735.583929c69.889969 0 126.515638 57.315372 126.515638 127.88505V813.745344h21.160907c33.975401 0 61.543556-27.448206 61.543556-61.423607v-737.453126h0.119948zM646.942017 639.770099c22.650267 0 41.182304 18.532037 41.182305 41.182304v45.750342c0 22.650267-18.532037 41.172309-41.182305 41.172309-22.650267 0-41.182304-18.522041-41.182304-41.172309v-45.750342c0-22.650267 18.532037-41.182304 41.182304-41.182304z m0 0"  horiz-adv-x="1026" />

    
    <glyph glyph-name="bianji_xiugai" unicode="&#58991;" d="M1021.97 361.77v-278.48C1016.32-30.39 920.39-127 801.86-127H214.93C96.41-127 0.47-30.39 0.47 88.97V680.03C0.47 799.38 96.41 896 214.93 896h299.11c22.57 0 45.15-17.05 45.15-45.47 0-28.42-16.93-45.46-45.15-45.46H214.93c-73.37 0-129.81-56.83-129.81-130.72v-591.06c0-73.89 56.44-130.72 129.81-130.72h586.93c73.37 0 129.81 56.83 129.81 130.72V361.77c0 22.73 16.93 45.46 45.15 45.46 22.57 0 45.15-17.05 45.15-45.46z m-564.01-35.2c5.64-5.69 16.94-11.37 28.22-11.37 11.29 0 22.57 5.68 28.22 11.37l496.64 494.45c16.93 17.05 16.93 45.46 0 62.51-16.93 17.06-45.15 17.06-62.08 0l-491-494.45c-16.93-17.05-16.93-45.47 0-62.51z"  horiz-adv-x="1024" />

    
    <glyph glyph-name="daoru" unicode="&#58992;" d="M1024 201.09v-146.26c0-102.38-80.44-182.82-182.82-182.82H183.01C80.63-128 0.19-47.56 0.19 54.82V712.99C0.19 815.37 80.63 895.81 183.01 895.81h146.26c21.94 0 36.57-14.62 36.57-36.57 0-21.94-14.62-36.56-36.57-36.56H183.01c-58.5 0-109.7-51.19-109.7-109.7v-658.17c0-58.5 51.19-109.7 109.7-109.7h658.17c58.5 0 109.7 51.19 109.7 109.7V201.09c0 21.94 14.62 36.56 36.56 36.56 21.93 0 36.56-14.63 36.56-36.56zM841.18 310.77c21.94 0 36.56 14.63 36.56 36.57 0 21.94-14.62 36.57-36.56 36.57h-277.9l372.96 372.96c14.63 14.63 14.63 36.57 0 51.19-14.62 14.63-36.56 14.63-51.19 0L512.09 435.1V712.99c0 21.94-14.62 36.57-36.56 36.57-21.94 0-36.57-14.63-36.57-36.57v-402.21h402.22z m0 0"  horiz-adv-x="1024" />

    
    <glyph glyph-name="daochu" unicode="&#58993;" d="M1023.82 201.09v-146.26c0-102.38-80.44-182.82-182.82-182.82H182.83C80.45-128 0-47.56 0 54.82V712.99C0 815.37 80.45 895.81 182.83 895.81h146.26c21.94 0 36.57-14.62 36.57-36.57 0-21.94-14.62-36.56-36.57-36.56H182.83c-58.5 0-109.7-51.19-109.7-109.7v-658.17c0-58.5 51.19-109.7 109.7-109.7h658.17c58.5 0 109.7 51.19 109.7 109.7V201.09c0 21.94 14.62 36.56 36.56 36.56 21.93 0 36.56-14.63 36.56-36.56zM621.6 822.68h277.9L336.4 266.9c-14.62-14.62-14.62-36.57 0-51.19 7.31-7.31 14.63-7.31 29.25-7.31s21.94 0 29.25 7.31l555.79 555.78v-277.9c0-21.94 14.62-36.56 36.56-36.56 21.94 7.31 36.57 14.62 36.57 36.56V895.81H621.6c-21.94 0-36.56-14.62-36.56-36.57 0-21.93 14.62-36.56 36.56-36.56z m0 0"  horiz-adv-x="1024" />

    
    <glyph glyph-name="shangchuan" unicode="&#58994;" d="M554.16 756.37v-626.55c0-25.57-17.05-42.63-42.63-42.63-25.57 0-42.62 17.05-42.62 42.63V743.58L306.95 581.61c-17.05-17.05-42.62-17.05-59.67 0-17.05 17.05-17.05 42.63 0 59.67L456.13 850.14c34.09 34.1 85.24 34.1 119.34 0l208.84-208.85c17.05-17.05 17.05-42.62 0-59.67-17.05-17.05-42.62-17.05-59.67 0L554.16 756.37z m383.59-541.31c0 25.57 17.05 42.63 42.63 42.63 25.57 0 42.62-17.05 42.62-42.63v-213.11c0-72.46-55.4-127.87-127.86-127.87h-767.2C55.48-125.92 0.07-70.51 0.07 1.95V215.06c0 25.57 17.05 42.63 42.63 42.63 25.57 0 42.62-17.05 42.62-42.63v-213.11c0-25.57 17.05-42.62 42.63-42.62h767.2c25.57 0 42.62 17.05 42.62 42.62V215.06z m0 0"  horiz-adv-x="1024" />

    
    <glyph glyph-name="xiazai" unicode="&#58995;" d="M554.91 166.42l174.47 174.81c17.02 17.05 42.55 17.05 59.58 0 17.02-17.06 17.02-42.64 0-59.69L580.44 72.62c-34.04-34.11-85.11-34.11-119.15 0L252.78 281.54c-17.02 17.05-17.02 42.63 0 59.69 17.02 17.05 42.56 17.05 59.58 0l161.71-162.02V810.23c0 25.59 17.02 42.64 42.56 42.64 25.53 0 42.55-17.05 42.55-42.64v-643.81h-4.27z m382.98 46.9c0 25.58 17.02 42.64 42.56 42.64 25.53 0 42.55-17.06 42.55-42.64v-213.18c0-72.48-55.31-127.91-127.65-127.91H129.38c-72.34 0-127.66 55.43-127.66 127.91V213.32c0 25.58 17.02 42.64 42.56 42.64 25.53 0 42.55-17.06 42.55-42.64v-213.18c0-25.58 17.02-42.64 42.56-42.64h765.97c25.53 0 42.55 17.06 42.55 42.64V213.32z m0 0"  horiz-adv-x="1024" />

    
    <glyph glyph-name="beifen_fuzhi" unicode="&#58996;" d="M925.06 893.53H336.03c-54.65 0-98.94-44.3-98.94-98.94v-52.77H100.55c-54.39 0.01-98.58-43.89-98.94-98.28v-670.82c0-54.64 44.3-98.94 98.94-98.94h589.03c54.64 0 98.94 44.3 98.94 98.94v52.77h136.54c54.39 0 98.58 43.9 98.94 98.28V794.59c0 54.64-44.3 98.94-98.94 98.94z m-202.5-920.82c0-18.21-14.77-32.98-32.98-32.98H100.55c-18.22 0-32.98 14.77-32.98 32.98V643.54c0 8.69 3.49 17.01 9.7 23.09a32.31 32.31 0 0 0 23.28 9.23h589.03c17.96 0.01 32.62-14.36 32.98-32.32v-670.83z m235.47 151.06a32.26 32.26 0 0 0-9.7-23.09 32.293 32.293 0 0 0-23.28-9.23H788.52v552.1c-0.36 54.39-44.56 98.28-98.94 98.28H303.05V794.6c0 18.22 14.77 32.98 32.98 32.98h589.03c18.21 0 32.98-14.77 32.98-32.98v-670.83z m-317.92-15.18c0-18.21-14.77-32.98-32.98-32.98H183c-18.22 0-32.98 14.77-32.98 32.98 0 18.22 14.77 32.98 32.98 32.98h424.13c18.21 0.01 32.98-14.76 32.98-32.98z m0 199.21c0-18.21-14.77-32.98-32.98-32.98H183c-18.22 0-32.98 14.77-32.98 32.98 0 18.22 14.77 32.98 32.98 32.98h424.13c18.21 0 32.98-14.77 32.98-32.98z m0 199.86c0-18.22-14.77-32.98-32.98-32.98H183c-18.22 0-32.98 14.77-32.98 32.98 0 18.21 14.77 32.98 32.98 32.98h424.13c18.21 0 32.98-14.77 32.98-32.98z"  horiz-adv-x="1024" />

    
    <glyph glyph-name="sousuo" unicode="&#58997;" d="M1004.082586-31.096906L800.240221 172.755454c23.601011 30.58835 43.083591 64.055604 58.207831 99.921944 23.261141 55.338924 35.066645 114.126534 35.066645 174.623493 0 60.506955-11.805504 119.284569-35.066645 174.623493-22.461445 53.399662-54.659183 101.40138-95.673562 142.655669-41.014379 41.254288-88.806177 73.571979-141.965931 96.253341C565.689552 884.084538 507.14185 896 446.864807 896c-60.267047 0-118.824744-11.915462-173.943752-35.406515-53.159754-22.571403-100.941555-54.999053-141.96593-96.253341-41.024375-41.244292-73.222113-89.146048-95.673562-142.655668C12.020422 566.345552 0.224914 507.567938 0.224914 447.060983c0-60.496959 11.795508-119.274573 35.066645-174.623493 22.461445-53.399662 54.659183-101.411377 95.673562-142.655669 41.024375-41.254288 88.806177-73.561983 141.965931-96.253341 55.119007-23.491053 113.676705-35.296557 173.943752-35.296557 60.277043 0 118.824744 11.915462 173.943751 35.296557 36.326165 15.474107 70.123293 35.406515 100.951552 59.587306l203.492498-203.502494c21.66175-21.66175 57.178223-21.66175 78.949931 0 21.641758 22.121575 21.641758 57.638048-0.12995 79.289802zM446.864807 90.026962c-195.825418 0-355.204717 160.188991-355.204717 357.153975 0 196.964984 159.269341 357.153975 355.204717 357.153975 195.825418 0 355.204717-160.188991 355.204717-357.153975 0.009996-196.964984-159.379299-357.153975-355.204717-357.153975z m0 0"  horiz-adv-x="1024" />

    
    <glyph glyph-name="zhiding" unicode="&#58998;" d="M1024 852.36c0-11.5-6.59-22.53-18.33-30.66-11.73-8.13-27.65-12.7-44.24-12.7H62.57C28.01 809 0 828.41 0 852.36 0 876.32 28.01 895.73 62.57 895.73h898.86c34.56 0 62.57-19.41 62.57-43.37zM512.65 666.6c-12.88 0-25.23-5.11-34.33-14.22a48.548 48.548 0 0 1-14.22-34.33v-697.49c0-26.82 21.74-48.55 48.55-48.55 26.82 0 48.56 21.74 48.56 48.55V618.04a48.53 48.53 0 0 1-14.22 34.33 48.564 48.564 0 0 1-34.34 14.23z m34.47 35.82c-18.97 18.96-48.63 20.06-66.23 2.43l-357.7-357.66c-17.62-17.62-16.52-47.27 2.43-66.23 18.97-18.97 48.61-20.05 66.23-2.44l357.68 357.66c17.6 17.62 16.52 47.28-2.43 66.23h0.02z m-68.92 0c-18.96-18.95-20.05-48.61-2.43-66.23l357.68-357.68c17.6-17.6 47.26-16.52 66.23 2.45 18.95 18.95 20.03 48.61 2.41 66.23L544.43 704.85c-17.61 17.63-47.27 16.53-66.23-2.43z"  horiz-adv-x="1024" />

    
    <glyph glyph-name="zhuanfa" unicode="&#59000;" d="M1023.82 201.09v-146.26c0-102.38-80.44-182.82-182.82-182.82H182.83C80.45-128 0-47.56 0 54.82V712.99C0 815.37 80.45 895.81 182.83 895.81h146.26c21.94 0 36.57-14.62 36.57-36.57 0-21.94-14.62-36.56-36.57-36.56H182.83c-58.5 0-109.7-51.19-109.7-109.7v-658.17c0-58.5 51.19-109.7 109.7-109.7h658.17c58.5 0 109.7 51.19 109.7 109.7V201.09c0 21.94 14.62 36.56 36.56 36.56 21.93 0 36.56-14.63 36.56-36.56zM1012.6 603.39L684.73 890.14c-6.56 5.7-15.02 6.32-21.96 1.49-6.94-4.83-11.31-14.24-11.31-24.65v-132.66h-80.9c-84.89 0-164.74-41.49-224.82-116.92-29.27-36.79-52.28-79.65-68.44-127.34C260.57 440.5 252.11 387.98 252.11 333.73c0-40.13 4.65-85.72 12.17-118.79 2.47-11.02 9.89-18.95 18.72-19.94h1.81c8.08 0 15.59 6.07 19.21 15.61 50.29 134.27 154.86 220.98 266.46 220.98h80.9v-138.12c0-10.28 4.37-19.69 11.31-24.65 6.94-4.83 15.4-4.33 21.96 1.49l327.96 286.75c5.89 5.21 9.51 13.87 9.51 23.16-0.01 9.3-3.53 17.97-9.52 23.17z m-88.21-16.04L717.4 418.42v81.92c0 11.07-7.41 20.08-16.52 20.08h-78.98c-49.84 0-95.79-2.5-146.79-32.25-30.31-17.68-130.92-89.06-150-121.09-0.51 7.94 20.14 85.47 23 92.41C390.11 561.46 504.6 658.2 621.9 658.2h78.98c9.1 0 16.52 9.02 16.52 20.08v78l206.99-168.93z"  horiz-adv-x="1024" />

    
    <glyph glyph-name="shoucang" unicode="&#59002;" d="M243.694328-128c-16.13291 0-31.706067 5.227703-45.609956 15.703099-23.919489 18.032076-36.144116 48.848533-31.146313 79.085246l43.380936 263.993987c0.559754 3.488467-0.559754 7.556679-3.338533 9.885656L23.441119 427.32596C2.30041 448.836507-5.486168 480.822451 3.979672 510.469423c9.455845 29.656967 33.365337 50.587769 62.852379 55.245722l253.618547 38.373137c3.338533 0.579745 6.677066 2.908722 8.346332 6.397188L442.257069 850.649929C455.601205 878.557665 482.299473 896 511.776519 896c30.0368 0 56.175314-17.442335 69.519449-45.360066L694.766103 611.075211c1.669266-3.488467 4.448045-5.817444 8.346333-6.397189l253.618546-38.373136c29.477046-4.647957 53.396535-25.588755 62.85238-55.245723 9.455845-29.646972 1.669266-61.642911-19.461448-83.153457L816.572575 241.247733c-2.778779-2.328977-3.898287-6.397189-3.338533-9.885656l43.380936-264.003982c4.997804-30.816458-6.677066-61.05317-31.146312-79.075251-23.919489-18.032076-55.61556-20.930802-81.764069-6.397188L516.774323 6.330968c-3.338533 1.739236-7.226824 1.739236-10.015599 0l-226.370521-124.445312c-11.664874-6.397189-24.459251-9.885656-36.693875-9.885656zM511.776519 826.220665c-2.778779 0-7.226824-0.579745-10.005603-6.397189L388.300781 580.248758c-11.125111-23.839524-33.375333-40.702113-58.404334-44.19058L76.287896 497.685041c-5.567553-1.15949-7.786578-5.237698-8.896091-7.566675-0.559754-2.318981-1.669266-7.556679 2.778779-11.624891l183.539343-186.657973c18.351935-18.601825 26.698267-45.360066 22.250222-72.098316l-42.831178-264.583728c-1.109512-5.807448 2.22902-9.295915 4.448046-11.045146 2.22902-1.739236 6.117312-3.488467 11.684865-0.579745l226.37052 124.445312c22.79998 12.214632 49.508243 12.214632 72.308224 0l226.370521-124.445312c5.007799-2.908722 9.455845-0.579745 11.67487 0.579745 2.219025 1.749231 5.557558 5.237698 4.448045 11.045146l-43.380936 264.003983c-4.448045 26.1685 3.898287 52.916746 22.250222 72.098316l183.539343 186.657972c4.448045 4.068212 3.338533 9.30591 2.778779 11.634887-0.549758 2.318981-2.778779 6.976934-8.896091 7.55668L693.096837 535.478432c-25.029001 4.068212-47.279223 20.351057-58.404334 44.190581L521.232363 819.833472c-2.22902 5.807448-7.23682 6.387193-9.455844 6.387193z m0 0"  horiz-adv-x="1024" />

    
    <glyph glyph-name="yishoucang" unicode="&#59003;" d="M243.694328-128c-16.13291 0-31.706067 5.227703-45.609956 15.703099-23.919489 18.032076-36.144116 48.848533-31.146313 79.085246l43.380936 263.993987c0.559754 3.488467-0.559754 7.556679-3.338533 9.885656L23.441119 427.32596C2.30041 448.836507-5.486168 480.822451 3.979672 510.469423c9.455845 29.656967 33.365337 50.587769 62.852379 55.245722l253.618547 38.373137c3.338533 0.579745 6.677066 2.908722 8.346332 6.397188L442.257069 850.649929C455.601205 878.557665 482.299473 896 511.776519 896c30.0368 0 56.175314-17.442335 69.519449-45.360066L694.766103 611.075211c1.669266-3.488467 4.448045-5.817444 8.346333-6.397189l253.618546-38.373136c29.477046-4.647957 53.396535-25.588755 62.85238-55.245723 9.455845-29.646972 1.669266-61.642911-19.461448-83.153457L816.572575 241.247733c-2.778779-2.328977-3.898287-6.397189-3.338533-9.885656l43.380936-264.003982c4.997804-30.816458-6.677066-61.05317-31.146312-79.075251-23.919489-18.032076-55.61556-20.930802-81.764069-6.397188L516.774323 6.330968c-3.338533 1.739236-7.226824 1.739236-10.015599 0l-226.370521-124.445312c-11.664874-6.397189-24.459251-9.885656-36.693875-9.885656z"  horiz-adv-x="1024" />

    
    <glyph glyph-name="dianzan" unicode="&#59004;" d="M83.743524 457.883735h66.451653c130.125326 0 199.344965 102.175661 199.344965 209.887295V783.756644c0 5.52598 0 13.809952 2.767986 19.325939 11.081937 60.755797 69.219639 102.175661 130.135319 91.133695l16.607917-2.767986c55.379708-8.283973 102.445465-44.187851 124.589354-93.891689 22.153882-46.945844 30.45784-99.417668 22.153881-149.131498l-11.071944-85.607715v-2.767986c0-8.283973 5.535972-13.809952 13.83993-13.809953h290.718486c52.611722-8.283973 88.595542-55.229817 83.059569-110.469627l-96.909493-480.520393c-5.545965-46.945844-47.065757-82.839729-96.909492-82.839729H105.887413c-44.297771 0-80.301576 35.903878-83.069562 80.081736L0.673962 372.27602c-2.767986 46.945844 33.225826 85.607715 80.291584 85.607715h2.777978z m191.041007-502.614318h553.757109c5.535972 0 13.839931 5.52598 13.839931 11.051959l96.909492 477.7624c0 8.283973-5.535972 13.809952-11.081937 16.567945H648.562585c-52.611722 0-96.909493 44.187851-96.909492 96.659675v13.809952l11.081937 85.607716c5.535972 35.903878 0 71.797763-16.61791 102.175661-11.081937 27.619905-35.993812 44.187851-63.683666 49.71383l-16.617909 2.757994c-16.617909 2.767986-30.45784-8.283973-33.225827-22.093926v-118.7536c0-118.7536-63.683666-237.497207-188.27302-278.927064l30.467833-436.332542zM139.11324 377.801999h-27.689854c-16.617909 0-27.689854-13.809952-27.689854-27.609912l11.071944-367.292773c0-13.809952 13.839931-27.619905 27.689854-27.619905h41.529785c16.607917 0 27.689854 11.051959 27.689854 27.619905v2.757994l-24.921868 364.534779c-2.757993 13.79996-13.839931 27.609912-27.679861 27.609912z m0 0"  horiz-adv-x="1024" />

    
    <glyph glyph-name="yidianzan" unicode="&#59009;" d="M1023.99844 456.37911l-115.989823-571.16913c0-6.59999-9.939985-13.20998-16.569975-13.20998H228.659652L192.199707 393.649205c149.129773 49.519925 225.339657 191.489708 225.339657 333.459492V869.078481C420.859359 885.588456 437.429334 898.798436 457.309303 895.488441l19.88997-3.299995c33.13995-6.60999 62.959904-26.40996 76.219884-59.42991 19.88997-36.319945 26.50996-79.239879 19.88997-122.159814l-13.25998-102.349844v-16.509974c0-62.729904 53.019919-115.559824 115.989823-115.559824h334.69949c6.62999-3.289995 13.25998-9.889985 13.25998-19.79997zM66.269899 377.13923H33.13995C13.24998 377.13923 0 360.639256 0 344.129281l13.24998-439.109331c0-16.509975 16.569975-33.01995 33.139949-33.01995H96.099854c19.87997 0 33.13995 13.20998 33.139949 33.01995v3.299995L99.409849 344.129281c-3.309995 16.509975-16.569975 33.00995-33.13995 33.009949z"  horiz-adv-x="1024" />

    
    <glyph glyph-name="shuaxin" unicode="&#59010;" d="M983.6 752.31l-67.52-53.64C824.03 818.25 680.85 895 520.08 895 242.47 895 17.77 666.92 17.41 384.71c-0.36-282.46 224.82-511.51 502.67-511.51 217.04 0 401.98 139.89 472.38 335.86 1.8 5.11-0.84 10.83-5.87 12.53l-67.87 23.72c-4.91 1.7-10.3-0.85-12.09-5.84-2.15-6.08-4.55-12.16-7.06-18.13-20.71-49.87-50.4-94.63-88.23-133.08-37.83-38.44-81.88-68.6-130.84-89.77-50.63-21.78-104.63-32.85-160.17-32.85-55.67 0-109.54 11.07-160.18 32.85-48.96 21.04-93.01 51.21-130.84 89.77-37.83 38.44-67.51 83.21-88.23 133.08-21.43 51.58-32.32 106.32-32.32 162.88s10.9 111.3 32.32 162.88c20.71 49.88 50.4 94.64 88.23 133.08 37.83 38.44 81.88 68.6 130.84 89.77 50.64 21.77 104.63 32.84 160.18 32.84 55.67 0 109.54-11.07 160.17-32.84 48.96-21.04 93.02-51.21 130.84-89.77a419.313 419.313 0 0 0 33.28-38.2l-72.07-57.17c-6.35-4.99-4.19-15.21 3.59-17.15l210.21-52.31c5.99-1.46 11.85 3.16 11.85 9.37l0.96 220.05c-0.12 8.03-9.33 12.53-15.56 7.54z m0 0"  horiz-adv-x="1024" />

    
    <glyph glyph-name="fenxiang" unicode="&#59011;" d="M841.21 894.46c-56.85 0.07-108.15-34.12-129.96-86.63-12.89-31.04-13.97-64.86-4.4-95.64L345.16 504.33a180.475 180.475 0 0 1-125.02 50.31h-0.91c-99.69-0.4-180.22-81.47-179.95-181.16 0.27-99.69 81.23-180.32 180.92-180.19 35.1 0.05 67.85 10.11 95.56 27.48l297.52-171.76c-12.82-48.02 0.64-99.87 36.46-135.64 40.23-40.18 100.7-52.16 153.21-30.35 52.51 21.81 86.7 73.1 86.63 129.96 0 37.25-14.81 72.98-41.17 99.3a140.313 140.313 0 0 1-99.36 41.04c-35.33 0-68.49-13.24-93.75-35.86l-281.13 162.3c16.8 27.43 26.48 59.69 26.48 94.21 0.02 21.66-3.86 42.93-11.25 62.86l362.62 208.4c39.75-32.56 94.58-41.07 142.75-21.13 52.54 21.74 86.8 72.99 86.8 129.85-0.01 77.52-62.82 140.41-140.36 140.51z m-662.96-620c-40.26 16.65-66.51 55.93-66.51 99.5 0 59.39 48.09 107.58 107.49 107.67 43.57 0.08 82.89-26.11 99.61-66.34 16.72-40.23 7.56-86.57-23.23-117.41-30.77-30.83-77.1-40.07-117.36-23.42z m633.33-235.75c10.5-25.25 4.73-54.34-14.6-73.68-19.34-19.34-48.43-25.1-73.68-14.6-25.25 10.5-41.68 35.19-41.6 62.54 0.1 37.15 30.19 67.24 67.34 67.34 27.35 0.07 52.04-16.35 62.54-41.6z m77.38 667.47c-19.31-19.31-48.35-25.09-73.59-14.64-25.23 10.46-41.68 35.08-41.68 62.39 0 37.3 30.23 67.53 67.52 67.53 27.32 0 51.94-16.45 62.39-41.68 10.45-25.24 4.67-54.28-14.64-73.6z"  horiz-adv-x="1024" />

    
    <glyph glyph-name="saoma" unicode="&#59012;" d="M985.6 341H39.4C19.3 341 3 360 3 383.41c0 23.41 16.3 42.41 36.4 42.41h946.2c20.12 0 36.4-19 36.4-42.41 0-23.41-16.27-42.41-36.4-42.41z m-72.8-469H694.31c-20.14 0-36.42 16.28-36.42 36.42s16.28 36.42 36.42 36.42H912.8c20.1 0 36.42 16.31 36.42 36.41V163.32c0 20.14 16.27 36.42 36.42 36.42 20.14 0 36.41-16.28 36.41-36.42v-182.08c-0.01-60.22-49.02-109.24-109.25-109.24z m-619.23 0H111.49C51.26-128 2.25-78.98 2.25-18.75V163.32c0 20.14 16.31 36.42 36.41 36.42 20.1 0 36.42-16.28 36.42-36.42v-182.08c0-20.1 16.35-36.41 36.41-36.41h182.08c20.1 0 36.42-16.28 36.42-36.42 0-20.13-16.32-36.41-36.42-36.41zM37.66 567.07c-20.1 0-36.41 16.31-36.41 36.41V785.55C1.25 845.79 50.26 894.8 110.49 894.8h182.08c20.1 0 36.42-16.31 36.42-36.42 0-20.1-16.31-36.41-36.42-36.41H110.49c-20.06 0-36.41-16.35-36.41-36.42v-182.08c0-20.09-16.32-36.4-36.42-36.4z m948.97 0c-20.14 0-36.42 16.31-36.42 36.41V785.55c0 20.07-16.31 36.42-36.42 36.42H695.31c-20.14 0-36.42 16.31-36.42 36.41 0 20.1 16.28 36.42 36.42 36.42H913.8c60.23 0 109.25-49.01 109.25-109.25v-182.08c-0.01-20.09-16.28-36.4-36.42-36.4z"  horiz-adv-x="1024" />

    
    <glyph glyph-name="tijiao" unicode="&#59013;" d="M434.36-26c0-18.85-13.91-34.6-31.97-37.51v-0.49h-270.9C93.87-64 63-32.1 63 7.42V824.06C63 863.36 93.68 895.48 131.48 895.48h760.03c37.64 0 68.48-31.9 68.48-71.42V448.6c0-20.07-16.42-36.5-36.5-36.5-20.07 0-36.5 16.42-36.5 36.5V627.84c0 0.73 0.03 1.45 0.07 2.17l-1.59 190.51-745.95-1.99-2.32-807.73 74.92 0.34c2.58 0.56 5.26 0.86 8 0.86h176.24c0.3 0 0.61-0.02 0.91-0.02l5.12 0.02v-0.49c18.06-2.91 31.97-18.66 31.97-37.51zM801 668c0 22-18 40-40 40H265c-22 0-40-18-40-40s18-40 40-40h496c22 0 40 18 40 40zM264.24 498.06c-22 0-40-18-40-40s18-40 40-40H508c22 0 40 18 40 40s-18 40-40 40H264.24zM476 248c0 22-18 40-40 40H263.76c-22 0-40-18-40-40s18-40 40-40H436c22 0 40 18 40 40z m485.94-72.87c-2.26-7.45-7.65-12.26-13.6-12.14h-97.5v-246.34c0.16-11.77-3.19-23.13-9.28-31.53-6.09-8.4-14.42-13.12-23.12-13.12h-157.1c-13.15 0-23.85 14.32-24.01 32.12V162.21H527.68c-6.09 0-11.53 5.17-13.6 12.92-2.33 7.52-0.81 16.23 3.76 21.54l220.75 271.02c5.59 7.21 14.38 7.21 19.96 0l200.2-270.62c4.13-5.85 5.37-14.41 3.19-21.94zM882 207L745.74 389.87 587 203h78c2.99 0.09 11.75-3.79 13.88-6.9 2.14-3.11 3.34-7.38 3.34-11.83V-79H807v42l-2 220c0 3-2.52 12.48 4 19 4 4 13.01 4.09 16 4l57 1z"  horiz-adv-x="1024" />

    


  </font>
</defs>
</svg>
